<?xml version="1.0" standalone="no"?>
<!DOCTYPE svg PUBLIC "-//W3C//DTD SVG 20010904//EN"
 "http://www.w3.org/TR/2001/REC-SVG-20010904/DTD/svg10.dtd">
<svg version="1.0" xmlns="http://www.w3.org/2000/svg"
 width="564.000000pt" height="564.000000pt" viewBox="0 0 564.000000 564.000000"
 preserveAspectRatio="xMidYMid meet">
<metadata>
Created by potrace 1.14, written by Peter Selinger 2001-2017
</metadata>
<g transform="translate(0.000000,564.000000) scale(0.100000,-0.100000)"
fill="#000000" stroke="none">
<path d="M5015 4080 c3 -5 8 -10 11 -10 2 0 4 5 4 10 0 6 -5 10 -11 10 -5 0
-7 -4 -4 -10z"/>
<path d="M4955 4060 c-3 -5 -1 -10 4 -10 6 0 11 5 11 10 0 6 -2 10 -4 10 -3 0
-8 -4 -11 -10z"/>
<path d="M5040 4055 c-11 -13 -15 -13 -21 -3 -5 9 -8 6 -7 -9 2 -24 18 -21 36
7 15 24 10 26 -8 5z"/>
<path d="M5070 4066 c0 -2 7 -7 16 -10 8 -3 12 -2 9 4 -6 10 -25 14 -25 6z"/>
<path d="M5152 4048 c-7 -7 -12 -9 -12 -5 0 3 -11 2 -24 -3 -16 -6 -28 -5 -37
3 -8 7 -10 8 -7 3 4 -5 -7 -16 -25 -26 -25 -13 -34 -14 -43 -4 -8 10 -13 8
-24 -9 -12 -20 -12 -21 3 -8 11 9 17 10 17 2 0 -11 -12 -15 -40 -12 -9 1 -26
-10 -38 -24 -14 -16 -27 -22 -38 -18 -10 4 -15 2 -11 -3 3 -6 -3 -15 -13 -22
-16 -10 -21 -9 -30 6 -9 14 -10 13 -4 -7 4 -14 2 -21 -4 -17 -5 3 -15 -1 -22
-10 -7 -8 -19 -13 -27 -10 -8 3 -12 2 -9 -2 3 -5 -16 -19 -42 -33 -26 -13 -49
-26 -52 -29 -17 -17 -92 -50 -102 -44 -7 4 -8 3 -4 -4 3 -6 -2 -16 -13 -21
-29 -16 -39 -13 -17 4 11 8 15 15 8 15 -6 0 -18 -11 -27 -23 -19 -30 -87 -64
-69 -35 4 7 3 8 -5 4 -6 -4 -9 -11 -6 -16 6 -9 -62 -45 -77 -42 -5 1 -8 -3 -8
-9 0 -6 -7 -8 -16 -5 -8 3 -12 2 -9 -4 7 -11 -52 -43 -66 -35 -5 4 -8 3 -7 -2
2 -4 1 -8 -2 -8 -3 0 -16 -10 -29 -22 -13 -12 -28 -20 -33 -17 -4 3 -8 0 -8
-6 0 -7 -7 -9 -17 -6 -10 4 -14 4 -10 0 8 -9 -47 -44 -69 -44 -9 0 -12 -5 -8
-12 5 -8 0 -9 -14 -6 -12 4 -20 3 -17 -1 2 -5 -8 -14 -23 -22 -15 -8 -42 -24
-61 -36 -18 -13 -37 -20 -42 -17 -5 3 -9 1 -9 -4 0 -8 -50 -36 -59 -32 -2 1
-7 -2 -10 -7 -8 -12 -101 -65 -101 -58 0 3 -10 -4 -22 -15 -13 -11 -33 -23
-45 -26 -13 -4 -23 -10 -23 -15 0 -5 -5 -9 -10 -9 -6 0 -29 -11 -51 -25 -26
-17 -48 -24 -62 -20 -15 4 -18 4 -8 -3 13 -10 10 -12 -84 -60 -16 -8 -39 -22
-49 -31 -12 -10 -16 -11 -12 -3 5 8 -11 0 -34 -17 -24 -17 -49 -31 -57 -31 -7
0 -13 -4 -13 -10 0 -5 -9 -10 -20 -10 -11 0 -20 -5 -20 -11 0 -5 -4 -7 -10 -4
-5 3 -10 1 -10 -5 0 -6 -4 -8 -10 -5 -5 3 -10 1 -10 -4 0 -6 -7 -11 -15 -11
-8 0 -15 -6 -15 -12 0 -9 -3 -8 -9 2 -6 8 -7 18 -5 22 3 4 0 8 -6 8 -6 0 -8
-10 -4 -27 7 -25 6 -27 -10 -14 -15 12 -16 12 -9 -5 6 -17 5 -17 -10 -5 -15
12 -17 12 -12 -1 4 -9 -9 -21 -39 -37 -25 -12 -48 -26 -51 -31 -3 -5 -12 -7
-20 -3 -8 3 -15 0 -15 -6 0 -6 -5 -11 -11 -11 -8 0 -8 5 1 15 9 10 9 15 1 15
-10 0 -15 -12 -12 -36 0 -6 -12 -10 -29 -10 -20 0 -30 5 -30 15 0 12 3 12 12
3 7 -7 16 -12 21 -12 5 0 2 7 -7 15 -8 8 -21 12 -30 9 -10 -4 -19 3 -27 20 -7
14 -16 26 -21 26 -4 0 -8 7 -8 16 0 8 -3 13 -7 11 -5 -3 -14 1 -20 9 -8 8 -9
15 -3 19 6 3 10 1 10 -4 0 -6 5 -11 12 -11 6 0 4 8 -6 19 -13 15 -14 20 -4 24
8 3 6 6 -6 6 -12 1 -16 -4 -12 -14 3 -8 1 -15 -4 -15 -6 0 -10 5 -10 10 0 6
-6 10 -14 10 -8 0 -18 9 -21 20 -3 11 -11 20 -17 20 -7 0 -6 5 1 14 9 11 9 16
0 22 -8 4 -9 3 -5 -4 11 -19 -14 -14 -41 8 l-25 20 23 10 24 10 -25 -4 c-14
-3 -32 -1 -40 4 -8 5 -10 10 -5 10 6 0 -5 8 -23 17 -18 8 -30 18 -28 21 3 3
-11 14 -32 24 -42 23 -64 46 -55 61 3 6 1 7 -6 3 -6 -4 -8 -13 -4 -19 3 -7 -2
-4 -13 5 -10 9 -38 22 -62 30 -23 7 -42 16 -42 19 0 4 -14 5 -30 3 -30 -4 -30
-4 -14 21 15 23 15 25 0 19 -9 -3 -14 -10 -11 -14 3 -4 -1 -13 -9 -19 -11 -9
-15 -9 -19 1 -4 10 -6 10 -6 1 -1 -7 -9 -13 -19 -13 -10 0 -23 -5 -30 -12 -7
-7 -12 -9 -12 -4 0 4 -7 1 -15 -7 -12 -13 -21 -13 -45 -4 -16 6 -30 15 -30 20
0 4 8 3 19 -2 10 -6 21 -7 25 -4 3 3 6 0 6 -7 0 -9 5 -8 13 5 9 11 19 15 27
10 9 -5 11 -4 6 3 -7 12 -40 11 -52 0 -11 -11 -33 3 -27 18 3 8 0 14 -6 14 -6
0 -10 -6 -9 -12 2 -7 -3 -12 -10 -10 -8 1 -11 -1 -8 -6 8 -13 -87 10 -96 22
-5 8 -8 7 -8 -1 0 -7 -9 -10 -23 -7 -53 12 -126 20 -122 13 5 -6 -47 -20 -53
-14 -2 1 -5 18 -7 36 -6 49 -13 86 -25 149 -6 30 -13 64 -14 75 -13 91 -37
119 -89 104 -39 -11 -48 -25 -43 -69 5 -41 41 -186 62 -249 8 -24 12 -51 10
-58 -3 -8 -2 -12 3 -8 10 5 27 -50 22 -72 -1 -7 4 -13 10 -13 7 0 3 -9 -9 -21
-12 -11 -27 -17 -32 -14 -6 4 -7 -1 -3 -11 5 -13 3 -15 -7 -9 -7 5 -11 4 -7
-1 3 -5 -6 -27 -20 -49 -14 -22 -22 -32 -19 -22 3 11 2 16 -4 12 -6 -3 -7 -17
-4 -30 3 -13 2 -30 -2 -37 -5 -7 -9 -16 -10 -20 -1 -5 -3 -10 -4 -13 -1 -3 -3
-13 -4 -23 0 -11 -7 -26 -15 -36 -12 -14 -12 -16 3 -10 9 3 16 1 16 -5 0 -6
-4 -11 -10 -11 -5 0 -7 -6 -5 -12 2 -7 6 -24 9 -38 2 -14 6 -32 8 -40 1 -8 -2
-14 -9 -15 -6 0 -15 -3 -19 -7 -3 -4 3 -6 15 -3 33 6 27 -30 -16 -89 -21 -28
-40 -53 -44 -56 -3 -3 -10 -13 -15 -22 -15 -28 -113 -128 -126 -128 -6 0 -8
-3 -5 -6 3 -4 -12 -27 -33 -52 -54 -60 -55 -109 -2 -63 12 10 18 22 14 26 -4
5 1 5 11 2 11 -4 16 -3 12 3 -3 6 32 62 80 125 92 123 123 157 136 149 5 -3 6
2 3 10 -4 11 0 16 10 16 9 0 16 5 16 11 0 5 5 7 10 4 6 -3 10 -15 10 -26 0
-11 4 -18 9 -14 5 3 12 -3 16 -12 7 -23 70 -70 165 -124 41 -24 76 -47 78 -51
2 -4 12 -8 23 -8 10 0 19 -4 19 -9 0 -5 9 -11 20 -14 40 -10 14 -34 -45 -41
-11 -2 -54 -13 -95 -26 -41 -13 -82 -25 -90 -26 -8 -1 -24 -4 -35 -7 -11 -3
-27 -7 -35 -9 -8 -1 -19 -7 -23 -13 -5 -6 -6 -1 -3 10 6 19 5 19 -8 2 -8 -10
-17 -14 -20 -9 -3 5 1 15 9 22 8 7 15 18 15 24 0 6 -5 3 -11 -7 -6 -9 -14 -15
-19 -12 -5 3 -7 -3 -5 -14 4 -20 -12 -31 -52 -36 -13 -2 -23 1 -23 7 0 6 8 7
18 3 13 -5 14 -3 5 6 -13 13 -33 4 -33 -15 0 -20 -78 -40 -96 -25 -12 10 -17
10 -27 0 -9 -10 -8 -11 6 -6 10 5 17 2 17 -6 0 -7 -3 -9 -7 -6 -3 4 -13 1 -21
-6 -13 -9 -14 -9 -8 1 4 7 2 12 -5 12 -7 0 -5 8 6 20 22 24 9 42 -20 29 -18
-9 -18 -9 3 -5 30 6 28 -8 -5 -34 -23 -18 -29 -19 -38 -7 -15 21 -50 -5 -41
-30 6 -14 9 -15 16 -3 5 8 6 18 3 23 -3 5 0 7 8 5 8 -3 13 -11 11 -18 -3 -11
0 -11 12 0 9 7 16 9 16 4 0 -5 5 -2 10 6 7 10 10 11 10 2 0 -12 -15 -21 -42
-26 -7 -1 -19 -5 -25 -9 -7 -5 -13 -5 -13 -1 0 3 -7 1 -15 -6 -8 -7 -15 -9
-15 -5 0 4 -6 3 -12 -2 -7 -6 -21 -9 -30 -8 -10 2 -18 0 -18 -4 0 -4 -6 -8
-12 -9 -7 0 -23 -3 -36 -6 -20 -4 -21 -3 -11 15 8 16 14 18 24 9 10 -8 15 -8
20 0 4 6 13 9 21 6 8 -3 14 0 14 7 0 8 4 7 11 -3 8 -11 9 -9 3 10 l-7 25 24
-20 24 -20 -22 26 c-28 31 -30 49 -3 24 11 -10 20 -13 20 -7 0 7 -5 12 -11 12
-5 0 -8 4 -5 9 4 5 -1 8 -10 7 -20 -3 -34 -25 -27 -43 3 -7 -2 -13 -11 -13 -9
0 -19 0 -23 -1 -4 0 -9 4 -11 10 -2 7 4 9 15 5 15 -5 15 -4 3 5 -11 8 -20 4
-38 -17 -16 -18 -22 -21 -18 -9 4 11 2 16 -5 12 -6 -4 -8 -12 -6 -19 2 -6 1
-20 -3 -30 -6 -19 -28 -26 -77 -28 -13 0 -21 -4 -18 -9 3 -4 -4 -6 -15 -4 -11
2 -20 -1 -20 -6 0 -5 -10 -1 -22 11 -12 11 -24 17 -27 14 -3 -3 2 -10 12 -15
9 -6 17 -15 17 -20 0 -6 -4 -7 -10 -4 -5 3 -19 1 -30 -5 -11 -6 -20 -7 -20 -3
0 5 -9 14 -20 21 -11 7 -19 9 -18 5 0 -5 -4 -19 -10 -33 -6 -14 -11 -22 -11
-18 -1 4 -22 -2 -47 -12 -55 -24 -55 -24 -48 -2 5 15 4 15 -8 1 -27 -32 -82
-51 -72 -25 3 8 -3 19 -15 26 -14 7 -21 7 -21 0 0 -5 7 -10 15 -10 8 0 15 -4
15 -10 0 -17 -28 -11 -39 8 -6 9 -11 12 -11 5 0 -6 9 -18 20 -26 22 -15 22
-15 -40 -32 -26 -7 -59 -18 -78 -27 -18 -10 -25 -8 -37 8 -14 19 -14 19 -9 -1
4 -17 -3 -23 -44 -36 -44 -13 -51 -13 -59 0 -8 12 -11 12 -18 1 -6 -9 -4 -11
5 -5 9 5 10 2 6 -13 -6 -17 0 -22 29 -32 22 -7 33 -16 28 -23 -5 -9 -3 -9 8
-1 15 12 92 7 84 -6 -3 -4 2 -11 11 -14 8 -3 12 -2 9 4 -3 5 7 7 22 6 16 -2
35 -4 44 -5 9 0 19 -9 22 -20 5 -21 54 -24 49 -3 -1 9 10 11 40 7 24 -3 58 -1
76 4 18 5 30 6 27 1 -3 -4 2 -10 10 -13 9 -4 12 -1 9 7 -6 15 24 26 61 21 14
-1 25 2 25 6 0 5 8 9 18 9 14 0 15 -2 2 -10 -10 -7 -11 -10 -2 -10 7 0 15 6
18 14 3 8 13 14 22 14 9 -1 27 2 40 6 15 5 22 3 22 -6 0 -10 2 -10 9 1 8 12
12 13 25 1 14 -11 16 -11 11 2 -3 8 0 15 7 16 7 0 24 3 37 6 14 3 31 0 40 -7
12 -9 13 -9 7 1 -7 12 4 16 32 13 6 -1 12 2 12 8 0 5 13 8 30 7 16 -1 30 1 30
5 0 4 12 7 28 5 15 -1 32 1 38 6 6 4 27 9 47 10 20 2 37 6 37 9 0 3 7 6 15 6
21 0 19 -17 -2 -18 -33 -2 -38 -4 -41 -14 -2 -5 -8 -16 -14 -23 -6 -7 -8 -15
-5 -19 4 -3 9 2 13 11 3 9 11 13 18 9 6 -4 5 1 -3 10 -15 18 -5 22 18 8 12 -8
13 -12 1 -25 -7 -9 -10 -19 -6 -23 3 -3 6 -1 6 5 0 7 3 11 8 11 19 -3 22 3 12
21 -12 22 -1 27 18 8 9 -9 12 -9 12 0 0 7 -5 12 -10 12 -7 0 -7 6 0 20 7 13
18 19 33 16 12 -2 28 1 34 6 15 12 17 -1 3 -22 -9 -13 -11 -13 -20 0 -5 8 -10
10 -10 4 0 -5 7 -19 16 -30 8 -10 13 -13 9 -6 -3 6 1 15 9 18 9 3 13 11 10 16
-4 6 2 8 17 3 24 -7 24 -7 4 10 -20 16 -20 16 3 12 12 -3 22 0 22 5 0 6 6 5
15 -2 9 -7 18 -10 22 -6 3 3 1 6 -6 6 -7 0 -9 5 -6 10 5 8 12 7 22 -1 13 -11
13 -14 -3 -26 -10 -7 -13 -13 -8 -13 6 0 16 6 23 13 11 10 13 9 8 -5 -3 -10
-3 -20 2 -22 11 -7 10 27 -2 42 -12 16 -9 20 26 26 14 2 32 8 38 12 8 4 9 3 5
-4 -4 -7 -2 -12 4 -12 6 0 8 -4 5 -10 -3 -5 -1 -10 5 -10 6 0 9 8 6 18 -6 17
6 21 72 25 6 0 12 4 12 9 0 4 7 8 15 8 8 0 15 -5 15 -11 0 -5 -4 -8 -9 -4 -18
10 -21 -13 -4 -26 9 -8 14 -9 10 -3 -4 7 5 11 22 11 20 0 28 -4 24 -14 -3 -7
1 -13 8 -13 7 0 9 3 6 7 -8 8 11 33 25 33 6 0 4 -8 -3 -17 -13 -15 -12 -15 12
0 14 10 34 15 43 11 11 -4 16 -1 16 10 0 9 5 16 11 16 5 0 7 -5 3 -12 -4 -7
-3 -8 4 -4 6 4 9 13 5 22 -4 10 -9 11 -17 5 -7 -6 -24 -8 -38 -6 -15 3 -30 -1
-37 -9 -7 -8 -21 -13 -32 -11 -10 2 -19 0 -19 -6 0 -5 -4 -9 -10 -9 -16 0 -11
30 5 31 17 2 34 5 38 9 4 3 40 9 70 12 15 1 27 7 27 13 0 5 5 2 11 -7 6 -11
16 -15 27 -11 15 6 16 5 3 -13 -8 -10 -26 -30 -41 -44 -14 -14 -20 -21 -13
-16 7 5 13 5 13 1 0 -4 8 3 19 16 17 21 21 22 37 9 10 -8 15 -10 11 -4 -11 19
19 24 42 8 12 -9 21 -11 21 -5 0 6 -5 11 -11 11 -5 0 -7 5 -4 10 4 6 11 8 16
5 5 -3 6 0 3 8 -3 8 1 14 10 14 9 0 14 -8 13 -20 -1 -12 7 -22 21 -28 15 -6
21 -5 17 1 -3 6 -13 10 -21 10 -8 0 -14 5 -14 10 0 22 32 8 51 -23 19 -29 20
-24 3 18 -3 8 -1 15 5 15 6 0 11 -6 11 -14 0 -20 17 -29 26 -15 4 8 3 9 -4 5
-7 -4 -12 -1 -12 8 0 8 -7 19 -16 24 -11 6 -13 12 -6 16 6 3 18 -4 26 -16 9
-12 18 -19 22 -15 3 3 24 -6 46 -19 26 -17 44 -22 50 -16 6 6 5 12 -3 17 -8 5
-10 4 -5 -3 9 -15 -5 -15 -25 1 -24 19 -29 44 -12 59 14 11 16 11 11 -3 -7
-19 8 -47 19 -36 4 5 2 11 -4 15 -9 5 -6 11 8 20 16 10 20 10 18 0 -1 -7 -1
-22 1 -33 1 -20 1 -20 9 0 11 27 64 29 87 4 9 -11 22 -19 28 -19 6 0 5 4 -3 9
-9 6 -10 11 -2 15 6 4 11 4 11 -1 0 -4 7 3 16 15 15 21 34 22 34 1 0 -6 -4 -8
-8 -5 -4 2 -14 -4 -21 -16 -10 -16 -10 -18 0 -12 9 5 10 2 6 -10 -4 -11 -3
-15 4 -11 6 4 8 13 5 20 -3 8 4 17 15 20 16 5 18 10 8 21 -8 9 -8 14 -1 14 6
0 16 -8 21 -17 10 -17 10 -16 11 2 0 11 4 16 8 10 11 -15 42 -18 42 -4 0 7 -3
9 -7 6 -3 -4 -17 0 -29 8 -13 8 -31 12 -41 8 -17 -6 -17 -5 -1 12 17 18 18 18
37 1 11 -10 25 -15 30 -11 6 3 14 -2 18 -12 13 -35 35 -43 55 -19 l18 21 19
-23 c13 -15 22 -19 27 -11 5 8 13 4 26 -12 11 -13 16 -17 12 -9 -4 8 -14 23
-22 33 -9 10 -11 17 -4 17 6 0 19 -11 28 -25 9 -14 21 -25 28 -25 8 0 8 2 0 8
-8 5 -6 15 6 34 19 31 35 27 19 -4 -9 -16 -7 -23 5 -34 9 -8 11 -9 6 -2 -15
19 -12 32 5 18 9 -8 15 -8 15 -2 0 6 -6 12 -12 15 -7 2 -10 8 -5 12 4 5 18 -2
31 -14 14 -13 31 -21 38 -18 9 4 8 6 -3 6 -11 1 -15 10 -14 31 2 34 10 46 20
31 3 -6 1 -11 -4 -11 -6 0 -11 -5 -11 -11 0 -5 4 -7 10 -4 6 3 7 -1 4 -9 -3
-9 -1 -16 6 -16 6 0 8 5 5 10 -3 6 -1 10 4 10 6 0 11 -4 11 -8 0 -5 11 -14 25
-20 23 -11 27 -9 35 12 12 33 27 40 39 19 10 -16 10 -16 8 4 -4 31 -16 40 -27
23 -7 -11 -10 -12 -10 -2 0 8 -5 10 -12 5 -7 -4 -18 -8 -24 -9 -6 -1 -20 -5
-31 -8 -14 -4 -20 -2 -20 9 0 9 6 14 13 11 8 -3 16 0 20 6 4 6 3 8 -4 4 -6 -3
-13 -2 -16 3 -6 10 12 9 29 -1 6 -3 29 -4 53 -3 25 2 40 0 36 -6 -3 -6 5 -8
21 -5 21 4 26 2 21 -11 -7 -17 10 -43 27 -43 6 0 2 6 -9 14 -10 8 -15 18 -11
22 4 5 13 2 18 -6 8 -11 9 -9 4 9 -6 18 -4 22 6 15 8 -4 29 -9 47 -10 19 0 39
-9 48 -20 13 -16 15 -16 10 -2 -3 11 1 16 13 15 14 -1 15 -5 7 -23 -6 -12 -13
-21 -16 -19 -3 2 -12 0 -20 -5 -11 -7 -9 -9 9 -7 13 1 26 9 28 17 5 20 43 45
43 29 0 -6 8 -8 19 -4 11 3 23 1 26 -6 5 -8 10 -8 14 0 9 13 50 3 47 -12 -2
-7 -1 -9 1 -4 3 4 9 5 14 2 5 -4 6 1 3 9 -4 11 0 13 16 9 23 -6 43 13 32 31
-3 6 -7 22 -8 36 -2 20 3 26 18 27 16 2 18 -1 9 -10 -6 -6 -11 -16 -11 -21 0
-6 7 0 16 12 11 16 19 20 28 13 13 -11 41 -9 53 4 4 4 2 5 -6 0 -10 -6 -12 -2
-7 13 4 11 2 23 -4 27 -6 3 -7 11 -4 17 4 7 2 8 -4 4 -7 -4 -12 -3 -12 2 0 16
13 22 27 11 7 -6 13 -7 13 -3 0 5 -9 15 -20 22 -11 7 -20 17 -20 23 0 8 4 8
13 1 10 -8 16 -5 26 11 11 18 11 20 0 10 -21 -21 -34 -15 -14 7 10 11 13 20 7
20 -7 0 -12 5 -12 11 0 6 9 8 23 4 16 -5 18 -4 8 4 -12 8 -12 12 -2 25 8 9 9
16 5 16 -5 0 -15 -9 -22 -21 -9 -13 -19 -18 -32 -14 -20 6 -37 -10 -20 -20 17
-11 11 -20 -15 -21 -21 -2 -24 1 -14 12 9 11 8 18 -1 29 -15 19 -34 20 -27 2
3 -8 -1 -14 -9 -14 -7 0 -11 4 -8 9 3 4 -2 5 -11 1 -13 -5 -14 -7 -3 -14 10
-7 10 -9 -1 -9 -11 0 -9 -4 5 -15 19 -15 19 -15 -1 -9 -17 5 -17 4 -5 -5 13
-10 12 -11 -4 -9 -10 2 -21 -2 -23 -9 -3 -7 3 -11 15 -8 11 2 19 -2 19 -11 0
-8 -4 -14 -9 -14 -4 0 -8 5 -8 11 0 5 -4 8 -9 5 -5 -3 -14 1 -21 9 -10 12 -10
18 1 31 12 15 11 16 -9 10 -24 -8 -28 0 -12 24 6 10 10 11 10 3 0 -7 5 -13 10
-13 6 0 9 6 8 13 -2 6 3 11 10 9 6 -1 12 3 12 9 0 5 5 7 10 4 6 -3 10 -1 10 5
0 6 4 9 9 5 5 -3 12 -1 16 5 4 6 12 5 21 -4 18 -18 35 -13 53 17 13 21 13 22
-6 4 -11 -9 -23 -14 -28 -10 -4 5 -5 2 0 -6 5 -9 4 -12 -3 -7 -7 4 -12 9 -12
11 0 8 100 49 113 47 4 -1 7 3 7 10 0 6 3 9 6 6 3 -4 17 0 32 8 20 10 28 11
34 1 5 -9 10 -9 20 2 10 10 10 12 1 7 -7 -4 -13 -3 -13 2 0 15 42 22 57 10 11
-8 12 -7 7 6 -5 12 -2 15 12 9 12 -4 15 -3 10 5 -5 8 0 12 13 12 11 0 23 5 26
11 4 6 13 8 21 5 8 -3 14 -1 14 5 0 6 6 9 14 6 8 -3 16 -2 18 3 2 5 10 10 18
12 8 2 17 5 20 9 8 9 108 49 122 49 8 0 19 5 26 12 9 9 4 18 -21 40 -26 24
-37 28 -62 22 -16 -4 -42 -8 -57 -8 -14 -1 -24 -4 -21 -8 2 -5 1 -8 -4 -9 -22
-2 -60 -10 -73 -16 -8 -3 -26 -8 -40 -10 -13 -2 -30 -9 -37 -15 -9 -7 -13 -7
-13 1 0 6 4 11 10 11 5 0 -2 11 -16 25 -13 13 -31 22 -38 19 -10 -4 -13 0 -11
13 2 10 4 20 4 23 1 3 6 -2 11 -10 9 -13 11 -13 19 0 5 8 7 18 5 22 -3 4 -1 8
4 8 17 0 21 -13 11 -32 -7 -14 -8 -23 -1 -30 7 -7 16 0 26 21 9 17 22 31 29
32 6 0 3 4 -7 8 -11 4 -21 18 -23 31 -3 19 -1 21 12 10 8 -7 12 -17 8 -23 -3
-5 -1 -7 5 -3 6 3 18 -4 26 -16 9 -12 19 -19 23 -15 3 4 -2 13 -13 21 -10 8
-19 28 -20 46 -2 30 -1 30 17 14 15 -13 16 -19 7 -25 -7 -4 -9 -11 -5 -16 5
-4 12 -1 17 7 13 20 12 30 -1 30 -5 0 -7 5 -3 12 4 6 3 8 -4 4 -6 -3 -15 1
-20 9 -7 13 -10 12 -20 -10 -7 -14 -16 -24 -21 -20 -5 3 -17 -5 -25 -17 -14
-20 -21 -18 -17 5 1 5 -3 6 -9 2 -6 -3 -8 -10 -5 -15 6 -9 -20 -21 -29 -13 -8
9 42 45 53 38 6 -3 15 4 21 16 7 11 14 18 17 15 3 -3 14 5 24 17 10 12 18 18
19 14 0 -4 24 10 54 32 29 22 56 38 58 35 3 -2 13 5 22 15 15 17 20 18 34 5
26 -22 35 -21 39 6 3 23 3 23 -10 6 -10 -13 -16 -15 -21 -8 -9 15 1 32 18 32
8 0 19 7 26 15 7 8 17 15 23 15 5 0 3 -8 -6 -18 -10 -10 -17 -23 -17 -28 1
-13 40 39 40 53 0 7 7 10 17 6 12 -5 14 -3 8 7 -5 9 -4 11 3 6 7 -4 12 -1 12
7 0 10 8 14 23 11 12 -2 16 -1 9 2 -8 4 8 19 45 42 32 20 61 41 65 46 4 6 8 7
8 3 0 -5 14 3 30 17 19 15 37 23 47 19 11 -4 14 -2 9 5 -4 7 3 14 19 18 15 4
22 11 18 18 -4 6 1 5 10 -3 16 -12 22 -11 47 8 29 21 30 21 30 2 0 -25 10 -31
35 -20 18 9 18 9 -2 5 -17 -3 -23 1 -23 14 0 29 -17 33 -40 10 -21 -21 -40
-26 -40 -10 0 6 7 10 15 10 8 0 15 3 15 8 0 4 20 18 45 32 25 14 45 28 45 32
0 4 7 4 17 1 11 -4 14 -3 9 5 -5 8 -2 10 8 6 8 -3 18 -15 22 -26 3 -11 8 -17
11 -14 3 3 -2 17 -11 31 -10 15 -12 25 -6 25 17 0 40 -26 32 -35 -4 -5 -1 -5
6 -1 11 7 10 11 -2 25 -24 26 -19 34 16 29 25 -4 28 -3 15 7 -14 10 -13 13 6
25 12 8 25 13 30 12 4 -1 7 3 7 9 0 6 7 8 16 5 8 -3 12 -2 9 4 -3 6 1 10 9 10
9 0 16 -4 16 -10 0 -5 5 -10 11 -10 8 0 8 4 -1 15 -15 18 -4 36 18 28 9 -3 14
-2 10 2 -8 8 31 42 44 38 3 -1 12 4 18 12 7 8 19 15 26 15 8 0 14 5 14 12 0 6
3 9 6 5 3 -3 20 7 37 23 17 15 36 26 42 23 7 -2 15 3 19 12 9 23 47 1 39 -23
-3 -11 1 -9 12 6 9 13 14 26 11 29 -3 4 -6 1 -6 -7 0 -10 -3 -10 -15 0 -12 10
-13 16 -4 26 6 8 16 11 23 7 17 -11 37 -12 30 -2 -3 5 0 9 7 9 7 0 9 3 6 6 -4
4 -15 1 -24 -7 -16 -12 -16 -11 1 8 10 12 23 21 30 20 6 -1 10 4 8 12 -2 8 3
11 12 8 8 -3 17 1 20 10 4 9 10 13 13 9 13 -13 30 37 23 68 -4 17 -6 41 -5 53
1 12 -2 20 -6 18 -4 -3 -10 7 -13 21 -5 19 -2 30 11 41 17 13 16 13 -4 3 -21
-10 -27 -7 -24 12 0 5 -13 21 -30 37 -17 17 -28 35 -24 40 8 15 2 14 -13 -1z
m-192 -72 c0 -2 -7 -7 -16 -10 -8 -3 -12 -2 -9 4 6 10 25 14 25 6z m-1070
-1136 c0 -5 -5 -10 -11 -10 -5 0 -7 5 -4 10 3 6 8 10 11 10 2 0 4 -4 4 -10z
m-43 -27 c-4 -3 -2 -12 4 -19 7 -9 6 -21 -5 -41 -8 -15 -15 -23 -15 -18 -1 6
3 17 9 25 5 9 5 19 -1 27 -10 12 -5 33 8 33 4 0 3 -3 0 -7z m-40 -17 c-10 -8
-14 -16 -10 -18 4 -3 3 -4 -3 -2 -6 1 -16 -2 -22 -8 -8 -8 -15 -8 -24 0 -19
15 -33 2 -35 -31 -2 -22 1 -27 12 -23 8 3 22 9 30 12 8 4 15 1 15 -6 0 -9 4
-10 13 -2 10 9 17 6 30 -8 15 -18 15 -21 1 -35 -13 -12 -19 -13 -30 -4 -8 7
-12 14 -9 18 3 3 10 0 14 -8 7 -10 9 -10 14 1 3 8 -1 15 -9 16 -8 1 -21 3 -29
4 -8 1 -12 6 -8 11 3 5 -5 3 -18 -3 -18 -10 -24 -10 -33 2 -6 8 -18 13 -26 11
-13 -4 -13 -3 0 6 8 6 10 11 4 11 -12 0 -31 -19 -34 -34 -1 -5 4 -13 12 -18 9
-6 6 -7 -9 -3 -12 3 -24 1 -28 -5 -5 -8 -11 -8 -21 1 -9 7 -14 8 -14 1 0 -6 3
-12 8 -15 4 -2 2 -2 -5 -1 -7 2 -15 -1 -18 -6 -4 -6 -10 -10 -16 -10 -13 0
-11 27 3 36 7 4 8 3 4 -4 -4 -7 -3 -12 3 -12 5 0 13 9 16 20 6 18 17 24 38 21
4 0 7 4 7 10 0 5 4 8 9 5 5 -3 11 1 15 9 3 8 12 15 21 15 8 0 15 4 15 8 0 12
70 43 81 37 5 -4 17 -1 26 4 26 15 31 13 10 -3z m-39 -52 c1 0 -9 -6 -22 -12
-20 -9 -24 -8 -21 6 2 9 4 21 4 26 1 5 9 2 19 -5 9 -7 18 -14 20 -15z m-63
-45 c6 -4 23 -6 38 -4 16 2 26 1 23 -2 -3 -3 -1 -15 5 -26 8 -14 8 -18 0 -12
-7 4 -18 1 -26 -5 -8 -7 -22 -10 -30 -6 -8 3 -15 2 -15 -3 0 -4 -7 -8 -15 -9
-8 -1 -22 -3 -30 -4 -8 -1 -15 -6 -15 -12 -1 -6 -7 0 -15 14 -15 28 -2 55 23
45 22 -8 33 4 22 25 -9 16 -8 19 7 13 10 -3 23 -9 28 -14z m-133 -52 c7 7 19
9 25 5 14 -9 21 -46 8 -47 -5 0 -16 -4 -22 -8 -7 -5 -13 -4 -13 1 0 6 7 12 15
16 9 3 12 12 8 22 -5 13 -9 11 -21 -12 -8 -16 -19 -32 -25 -35 -13 -9 -47 1
-47 13 0 6 6 8 14 5 8 -3 22 0 31 7 16 11 16 13 1 13 -9 0 -16 -4 -16 -9 0 -5
-5 -6 -11 -2 -8 4 -7 9 2 15 8 5 10 9 4 9 -21 0 -32 -16 -29 -42 3 -29 -9 -37
-22 -16 -4 7 -3 8 4 4 8 -5 10 -1 5 9 -4 13 -8 14 -13 4 -5 -7 -5 -19 -2 -28
5 -14 3 -14 -10 -3 -13 10 -18 10 -24 1 -5 -8 -3 -10 7 -4 8 5 11 5 7 1 -12
-14 -21 -11 -24 7 -1 9 4 17 12 17 8 0 13 5 12 12 -2 7 2 12 8 13 6 0 18 8 28
18 10 9 24 17 32 17 8 0 14 5 14 12 0 6 6 3 14 -7 11 -15 17 -17 28 -8z m-1
-261 c-15 -17 -5 -24 29 -21 14 2 29 4 34 4 5 1 1 10 -9 21 -10 11 -13 20 -8
20 6 0 16 -7 23 -15 10 -13 10 -19 -5 -35 -14 -15 -15 -23 -6 -33 11 -14 6
-27 -10 -27 -5 0 -6 6 -3 14 3 8 0 17 -7 22 -19 12 -59 13 -59 2 0 -6 7 -8 14
-5 10 4 13 1 9 -8 -3 -8 -9 -13 -13 -10 -5 3 -12 0 -16 -6 -5 -8 -3 -9 7 -4 8
5 11 5 7 0 -4 -4 -3 -16 3 -26 10 -20 -4 -28 -16 -9 -4 6 -11 7 -17 4 -7 -4
-8 -2 -4 4 4 7 2 12 -5 12 -7 0 -5 6 6 14 11 8 16 19 12 30 -4 11 -1 19 9 23
15 5 15 7 0 15 -21 12 -11 29 11 21 13 -5 15 -2 9 13 -6 15 -5 16 5 7 9 -10
10 -15 0 -27z m39 -66 c0 -5 -4 -10 -9 -10 -6 0 -13 5 -16 10 -3 6 1 10 9 10
9 0 16 -4 16 -10z m9 -36 c34 -28 35 -32 22 -53 -7 -12 -13 -12 -24 -3 -7 7
-18 8 -22 4 -5 -4 -5 1 -2 10 4 12 2 15 -9 11 -7 -3 -14 -8 -14 -12 0 -4 -9
-7 -20 -8 -12 -1 -20 4 -20 13 0 10 6 13 19 9 11 -3 24 1 32 12 8 9 9 14 3 10
-13 -7 -27 17 -17 27 11 10 21 7 52 -20z m-944 -44 c-3 -5 -1 -10 4 -10 6 0
11 6 12 13 0 9 2 9 5 0 3 -7 11 -10 19 -7 7 3 16 0 20 -6 6 -9 10 -9 16 1 6
10 9 10 9 2 0 -7 7 -10 15 -7 18 7 19 -5 4 -26 -9 -13 -10 -12 -5 3 4 11 2 16
-5 12 -6 -4 -8 -14 -5 -22 4 -9 2 -12 -7 -7 -6 4 -9 4 -5 -1 4 -4 3 -16 -2
-26 -7 -12 -7 -20 0 -24 6 -4 10 -3 9 2 -1 4 -1 15 0 23 1 13 2 13 11 0 5 -8
10 -10 10 -4 0 14 31 14 50 0 13 -10 13 -9 0 8 -9 12 -10 17 -2 12 6 -4 12 -5
12 -2 0 3 -10 10 -21 17 -17 9 -20 8 -14 -3 6 -10 5 -10 -5 -1 -9 8 -9 16 -1
30 10 17 10 17 11 -1 0 -11 3 -16 7 -13 3 4 12 -1 20 -11 12 -16 13 -16 7 1
-4 10 -1 17 6 17 6 0 8 -4 5 -10 -3 -5 -1 -10 6 -10 7 0 5 -6 -5 -13 -16 -12
-16 -14 -2 -14 9 0 16 5 16 10 0 5 7 7 15 4 8 -4 17 -1 21 5 5 7 2 8 -7 3 -12
-8 -12 -6 0 8 8 11 18 14 25 8 6 -4 19 -7 29 -6 9 2 17 0 17 -5 0 -4 9 -6 20
-3 11 3 20 1 20 -5 0 -11 -38 -10 -61 2 -8 4 -5 0 5 -8 11 -9 20 -27 22 -41
l3 -25 -34 26 -35 26 -11 -26 c-14 -31 -23 -32 -41 -7 -12 17 -16 17 -33 5
-12 -9 -14 -14 -5 -14 7 0 10 -3 7 -7 -4 -3 -16 2 -27 12 -19 17 -21 17 -40 0
-17 -15 -23 -16 -33 -5 -10 10 -9 11 3 4 8 -4 -2 9 -22 30 -41 42 -49 62 -20
51 14 -5 15 -4 5 6 -10 10 -16 10 -25 1 -9 -9 -7 -16 7 -32 24 -26 11 -39 -15
-15 -19 17 -21 17 -40 0 -11 -10 -17 -21 -15 -25 6 -9 -31 -6 -58 5 -11 5 -16
14 -13 24 4 11 2 10 -9 -3 -8 -11 -15 -15 -15 -9 0 10 -7 10 -39 4 -2 -1 2 -7
8 -14 6 -8 7 -18 3 -22 -4 -5 -1 -5 6 -1 7 4 9 12 6 18 -4 6 -1 8 7 6 8 -3 13
-10 12 -16 -2 -6 3 -9 10 -6 8 3 13 -4 14 -17 2 -20 1 -20 -16 -5 -10 9 -25
14 -35 10 -9 -4 -16 -1 -16 6 0 9 -8 6 -22 -6 -12 -10 -18 -13 -14 -6 11 19
-3 35 -19 22 -10 -8 -15 -8 -20 0 -11 17 -45 -18 -38 -38 5 -14 3 -15 -7 -5
-11 10 -10 16 3 36 11 17 12 28 5 38 -8 11 -9 10 -4 -4 4 -12 2 -16 -6 -11 -6
4 -9 3 -5 -2 3 -5 0 -20 -7 -32 l-12 -23 -19 21 c-14 15 -21 17 -31 9 -8 -6
-11 -15 -8 -20 7 -12 -3 -11 -27 2 -11 5 -17 14 -14 18 3 5 -2 11 -10 14 -10
4 -12 1 -9 -11 4 -12 3 -13 -3 -4 -7 9 -13 6 -23 -13 -8 -14 -19 -24 -25 -21
-7 2 -18 0 -25 -4 -19 -12 -33 -1 -20 15 13 16 -3 30 -22 19 -6 -4 -8 -3 -4 4
3 6 14 11 24 11 60 2 82 6 82 12 0 4 8 8 18 8 15 0 73 8 80 10 1 1 5 1 10 2 4
0 13 6 21 12 11 9 13 9 8 0 -4 -6 -3 -14 2 -17 5 -3 11 1 14 9 4 8 15 12 27
10 11 -2 20 0 20 5 0 5 9 7 20 5 11 -2 22 0 25 4 2 5 18 7 35 6 17 -1 30 2 30
9 0 7 4 6 9 -2 7 -11 9 -11 14 2 5 11 15 15 32 12 13 -3 27 0 31 5 3 5 9 7 14
4 5 -3 11 -1 15 4 3 5 14 8 25 6 11 -2 22 0 25 6 4 5 8 9 11 9 3 0 2 -4 -1
-10z m215 -40 c0 -5 -4 -10 -10 -10 -5 0 -10 5 -10 10 0 6 5 10 10 10 6 0 10
-4 10 -10z m-96 -18 c3 -5 -1 -9 -9 -9 -8 0 -12 4 -9 9 3 4 7 8 9 8 2 0 6 -4
9 -8z m-1864 -53 c0 -5 -7 -9 -15 -9 -15 0 -20 12 -9 23 8 8 24 -1 24 -14z
m2162 8 c-5 -7 -11 -18 -13 -25 -4 -10 -11 -8 -29 8 l-25 21 24 -7 c13 -3 21
-2 18 3 -3 5 3 10 14 10 15 1 18 -2 11 -10z m-522 -18 c0 -5 -6 -9 -13 -9 -8
0 -14 6 -14 14 0 8 6 12 14 9 7 -3 13 -9 13 -14z m-560 -39 c0 -5 -4 -10 -10
-10 -5 0 -10 5 -10 10 0 6 5 10 10 10 6 0 10 -4 10 -10z m-1317 -204 c4 -10 0
-14 -14 -13 -10 1 -19 7 -19 14 0 18 27 16 33 -1z"/>
<path d="M3695 2751 c-3 -5 -2 -12 3 -15 5 -3 9 1 9 9 0 17 -3 19 -12 6z"/>
<path d="M3604 2699 c-9 -15 12 -17 30 -4 17 13 17 14 -4 12 -12 -1 -24 -5
-26 -8z"/>
<path d="M3696 2687 c4 -12 2 -17 -6 -15 -7 2 -14 -5 -15 -14 -2 -10 2 -15 10
-12 19 8 28 35 15 48 -8 8 -9 6 -4 -7z"/>
<path d="M3725 2680 c-3 -5 -3 -10 2 -10 4 0 1 -5 -7 -10 -8 -5 -10 -10 -4
-10 5 0 19 7 30 15 18 15 18 15 0 8 -13 -4 -17 -3 -12 5 4 7 5 12 2 12 -3 0
-8 -4 -11 -10z"/>
<path d="M3633 2652 c0 -10 6 -19 13 -19 15 0 11 30 -4 35 -6 2 -10 -5 -9 -16z"/>
<path d="M3600 2282 c0 -6 7 -17 15 -25 8 -8 11 -18 7 -22 -4 -5 -1 -5 6 -1
11 6 10 12 -5 29 -10 12 -19 24 -20 26 -2 2 -3 -1 -3 -7z"/>
<path d="M2614 2218 c-3 -5 -9 -6 -14 -3 -5 3 -11 1 -15 -4 -3 -5 -15 -8 -27
-6 -12 3 -25 -1 -30 -8 -4 -6 -25 -13 -48 -13 -22 -1 -41 -2 -42 -4 -4 -2 -41
-11 -55 -12 -7 -1 -13 -5 -13 -9 0 -10 30 -20 41 -13 6 3 15 1 22 -4 7 -5 20
-9 31 -9 17 0 17 1 2 12 -17 13 -23 30 -7 20 5 -3 12 -1 16 4 3 5 14 8 25 6
11 -2 22 1 25 6 4 5 11 7 16 3 5 -3 7 -9 4 -14 -3 -5 3 -14 14 -20 16 -8 22
-6 30 7 6 10 11 14 11 9 0 -5 9 -1 20 9 19 17 21 17 43 -1 l22 -19 -19 22
c-14 17 -16 26 -8 36 9 10 6 13 -14 13 -14 0 -28 -4 -30 -8z m15 -24 c-12 -13
-25 -21 -30 -18 -4 2 -12 -4 -18 -13 -6 -11 -11 -13 -11 -5 0 8 -5 10 -12 6
-7 -4 -10 -4 -6 1 4 4 3 14 -3 21 -8 10 -6 12 10 9 11 -2 23 1 26 6 4 5 10 7
15 4 5 -3 11 -2 14 3 3 5 12 9 21 9 12 0 11 -5 -6 -23z m-183 -34 c0 -12 -4
-16 -9 -11 -5 5 -6 14 -3 20 10 15 12 14 12 -9z m-31 0 c-3 -5 -12 -10 -18
-10 -7 0 -6 4 3 10 19 12 23 12 15 0z"/>
<path d="M2615 2200 c-4 -6 -10 -8 -15 -5 -5 3 -11 1 -15 -5 -4 -6 -11 -7 -17
-4 -7 4 -8 2 -4 -5 6 -8 12 -9 20 -2 7 6 15 9 18 6 3 -3 11 1 18 10 7 8 10 15
7 15 -3 0 -9 -5 -12 -10z"/>
<path d="M2702 2213 c10 -12 4 -17 -15 -14 -5 1 0 -10 10 -23 18 -26 43 -35
43 -16 0 6 -1 11 -2 13 -1 1 4 13 11 26 7 13 8 21 3 17 -6 -3 -13 -2 -17 3 -3
5 -14 9 -25 8 -14 -1 -16 -4 -8 -14z m34 -19 c1 -29 -6 -36 -22 -23 -15 12 -9
33 7 24 5 -4 9 -2 9 4 0 5 -5 12 -10 14 -6 3 -5 4 2 3 7 -2 13 -11 14 -22z"/>
<path d="M2914 2194 c3 -7 -1 -17 -9 -24 -8 -7 -15 -9 -15 -5 0 4 -6 2 -13 -4
-8 -6 -17 -9 -21 -6 -3 3 1 -3 9 -12 14 -16 16 -16 31 5 14 20 17 21 39 6 19
-12 25 -13 31 -2 4 7 4 10 0 6 -5 -4 -19 5 -33 20 -13 15 -22 22 -19 16z"/>
<path d="M2285 2152 c-4 -4 -16 -7 -27 -7 -12 0 -22 -7 -24 -17 -1 -10 2 -18
7 -18 5 0 9 5 9 11 0 5 4 8 9 4 5 -3 13 0 16 5 5 8 14 5 27 -6 16 -16 21 -16
28 -4 14 23 -26 50 -45 32z m40 -14 c4 -3 2 -9 -3 -12 -5 -3 -15 1 -21 8 -10
11 -9 14 3 12 9 -1 18 -5 21 -8z"/>
<path d="M2800 2150 c-12 -7 -10 -9 7 -7 12 0 19 5 17 9 -6 10 -6 10 -24 -2z"/>
<path d="M2133 2122 c-9 -6 -7 -11 7 -19 14 -10 21 -9 31 3 6 8 9 17 5 21 -3
3 -6 1 -6 -7 0 -9 -4 -10 -13 -2 -7 6 -18 8 -24 4z"/>
<path d="M4850 4020 c0 -5 5 -10 11 -10 5 0 7 5 4 10 -3 6 -8 10 -11 10 -2 0
-4 -4 -4 -10z"/>
<path d="M4955 4020 c-16 -7 -17 -9 -3 -9 9 -1 20 4 23 9 7 11 7 11 -20 0z"/>
<path d="M5260 4020 c-9 -6 -10 -10 -3 -10 6 0 15 5 18 10 8 12 4 12 -15 0z"/>
<path d="M4896 3994 c-3 -8 0 -16 6 -20 7 -4 8 -3 4 4 -4 7 -1 12 8 12 9 0 16
4 16 8 0 14 -29 10 -34 -4z"/>
<path d="M4793 3975 c0 -8 4 -12 9 -9 5 3 6 10 3 15 -9 13 -12 11 -12 -6z"/>
<path d="M4870 3966 c0 -2 7 -7 16 -10 8 -3 12 -2 9 4 -6 10 -25 14 -25 6z"/>
<path d="M4795 3941 c-3 -5 -2 -12 3 -15 5 -3 9 1 9 9 0 17 -3 19 -12 6z"/>
<path d="M4734 3892 c3 -5 0 -13 -6 -15 -9 -4 -10 -6 -1 -6 17 -1 25 16 12 25
-7 4 -9 3 -5 -4z"/>
<path d="M5293 3851 c0 -11 5 -18 9 -15 4 3 5 11 1 19 -7 21 -12 19 -10 -4z"/>
<path d="M4635 3829 c-4 -6 -5 -12 -2 -15 2 -3 7 2 10 11 7 17 1 20 -8 4z"/>
<path d="M4557 3813 c-10 -9 -9 -23 1 -23 5 0 9 7 9 15 0 17 -1 18 -10 8z"/>
<path d="M5280 3760 c-9 -6 -10 -10 -3 -10 6 0 15 5 18 10 8 12 4 12 -15 0z"/>
<path d="M5230 3722 c0 -5 7 -9 15 -9 8 0 12 4 9 9 -3 4 -9 8 -15 8 -5 0 -9
-4 -9 -8z"/>
<path d="M5195 3700 c-3 -5 -1 -10 4 -10 6 0 11 5 11 10 0 6 -2 10 -4 10 -3 0
-8 -4 -11 -10z"/>
<path d="M4334 3682 c4 -3 14 -7 22 -8 9 -1 13 0 10 4 -4 3 -14 7 -22 8 -9 1
-13 0 -10 -4z"/>
<path d="M4110 3646 c0 -2 7 -7 16 -10 8 -3 12 -2 9 4 -6 10 -25 14 -25 6z"/>
<path d="M4274 3642 c4 -3 14 -7 22 -8 9 -1 13 0 10 4 -4 3 -14 7 -22 8 -9 1
-13 0 -10 -4z"/>
<path d="M5080 3640 c0 -5 5 -10 11 -10 5 0 7 5 4 10 -3 6 -8 10 -11 10 -2 0
-4 -4 -4 -10z"/>
<path d="M5029 3613 c-11 -13 -11 -17 -1 -20 6 -3 10 -9 7 -14 -4 -5 1 -6 10
-3 11 5 14 2 9 -10 -3 -9 -2 -16 4 -16 16 0 7 31 -12 42 -13 8 -15 13 -5 24 6
8 9 14 6 14 -2 0 -11 -7 -18 -17z"/>
<path d="M5136 3621 c-3 -5 1 -14 9 -21 8 -7 12 -17 8 -23 -4 -6 -1 -7 6 -3 9
6 9 12 -3 25 -9 10 -13 21 -9 24 3 4 4 7 0 7 -3 0 -8 -4 -11 -9z"/>
<path d="M5213 3615 c0 -8 4 -12 9 -9 5 3 6 10 3 15 -9 13 -12 11 -12 -6z"/>
<path d="M5059 3609 c-8 -5 -9 -9 -4 -10 6 0 18 -2 28 -4 9 -2 17 0 17 5 0 13
-26 19 -41 9z"/>
<path d="M4070 3602 c0 -5 7 -9 15 -9 8 0 12 4 9 9 -3 4 -9 8 -15 8 -5 0 -9
-4 -9 -8z"/>
<path d="M4150 3606 c0 -2 7 -7 16 -10 8 -3 12 -2 9 4 -6 10 -25 14 -25 6z"/>
<path d="M5115 3591 c-3 -5 -2 -12 3 -15 5 -3 9 1 9 9 0 17 -3 19 -12 6z"/>
<path d="M5005 3578 c5 -13 2 -16 -14 -13 -14 3 -18 0 -14 -12 5 -12 7 -12 14
-1 5 7 9 9 9 4 0 -6 5 -5 12 2 9 9 9 15 -1 25 -10 10 -11 9 -6 -5z"/>
<path d="M4956 3552 c2 -2 -2 -14 -8 -26 -10 -20 -10 -20 8 -4 12 12 15 21 8
27 -6 5 -9 6 -8 3z"/>
<path d="M4897 3534 c-3 -3 -3 -13 0 -22 5 -11 3 -13 -7 -7 -9 5 -11 4 -6 -3
10 -16 14 -15 26 7 9 19 0 37 -13 25z"/>
<path d="M5075 3529 c-4 -6 -5 -12 -2 -15 2 -3 7 2 10 11 7 17 1 20 -8 4z"/>
<path d="M3945 3520 c-3 -6 1 -7 9 -4 18 7 21 14 7 14 -6 0 -13 -4 -16 -10z"/>
<path d="M5020 3525 c0 -2 6 -8 13 -14 10 -8 14 -7 14 2 0 8 -6 14 -14 14 -7
0 -13 -1 -13 -2z"/>
<path d="M4905 3482 c-12 -17 -13 -22 -4 -15 9 7 18 11 20 8 3 -2 5 5 6 15 2
25 2 25 -22 -8z"/>
<path d="M4860 3479 c0 -5 5 -7 10 -4 6 3 10 8 10 11 0 2 -4 4 -10 4 -5 0 -10
-5 -10 -11z"/>
<path d="M4970 3460 c0 -5 5 -10 11 -10 5 0 7 5 4 10 -3 6 -8 10 -11 10 -2 0
-4 -4 -4 -10z"/>
<path d="M4754 3438 c-7 -11 5 -28 19 -27 9 0 9 2 0 6 -7 2 -13 9 -13 14 0 4
6 6 14 3 8 -3 17 -1 20 5 4 5 -3 9 -15 8 -11 -1 -23 -5 -25 -9z"/>
<path d="M4810 3440 c0 -5 5 -10 10 -10 6 0 10 5 10 10 0 6 -4 10 -10 10 -5 0
-10 -4 -10 -10z"/>
<path d="M4895 3431 c-3 -5 -2 -12 3 -15 5 -3 9 1 9 9 0 17 -3 19 -12 6z"/>
<path d="M4747 3388 c-12 -10 -14 -17 -6 -28 9 -13 10 -13 6 0 -2 8 3 20 12
27 9 7 13 13 10 13 -3 0 -13 -6 -22 -12z"/>
<path d="M4787 3375 c3 -8 9 -12 14 -9 12 7 11 11 -5 17 -10 4 -13 1 -9 -8z"/>
<path d="M4846 3382 c-3 -5 1 -9 9 -9 8 0 12 4 9 9 -3 4 -7 8 -9 8 -2 0 -6 -4
-9 -8z"/>
<path d="M2277 3352 c-15 -17 -15 -18 6 -19 12 0 16 1 9 4 -10 4 -10 8 -1 19
17 20 5 17 -14 -4z"/>
<path d="M2190 3356 c0 -2 8 -10 18 -17 15 -13 16 -12 3 4 -13 16 -21 21 -21
13z"/>
<path d="M2433 3335 c0 -8 4 -12 9 -9 5 3 6 10 3 15 -9 13 -12 11 -12 -6z"/>
<path d="M4607 3334 c-26 -14 -28 -44 -3 -44 21 0 27 12 13 28 -10 13 -9 15 4
10 9 -4 22 -1 29 5 10 9 12 8 7 -5 -4 -10 -2 -18 4 -18 16 0 6 33 -12 35 -8 2
-27 -4 -42 -11z m8 -24 c3 -5 2 -10 -4 -10 -5 0 -13 5 -16 10 -3 6 -2 10 4 10
5 0 13 -4 16 -10z"/>
<path d="M4739 3338 c-5 -18 -6 -38 -1 -34 7 8 12 36 6 36 -2 0 -4 -1 -5 -2z"/>
<path d="M2230 3322 c0 -4 10 -9 22 -9 18 -2 20 0 8 7 -18 12 -30 13 -30 2z"/>
<path d="M2376 3317 c3 -10 9 -15 12 -12 3 3 0 11 -7 18 -10 9 -11 8 -5 -6z"/>
<path d="M2411 3318 c-1 -21 15 -32 25 -17 4 7 3 9 -4 5 -6 -3 -13 2 -15 11
-4 16 -5 16 -6 1z"/>
<path d="M2550 3320 c0 -5 5 -10 11 -10 5 0 7 5 4 10 -3 6 -8 10 -11 10 -2 0
-4 -4 -4 -10z"/>
<path d="M4705 3320 c3 -5 8 -10 11 -10 2 0 4 5 4 10 0 6 -5 10 -11 10 -5 0
-7 -4 -4 -10z"/>
<path d="M4773 3305 c0 -8 4 -12 9 -9 5 3 6 10 3 15 -9 13 -12 11 -12 -6z"/>
<path d="M2476 3297 c3 -10 9 -15 12 -12 3 3 0 11 -7 18 -10 9 -11 8 -5 -6z"/>
<path d="M2500 3305 c0 -2 6 -8 13 -14 10 -8 14 -7 14 2 0 8 -6 14 -14 14 -7
0 -13 -1 -13 -2z"/>
<path d="M4676 3302 c-3 -5 1 -9 9 -9 8 0 12 4 9 9 -3 4 -7 8 -9 8 -2 0 -6 -4
-9 -8z"/>
<path d="M4635 3289 c-11 -16 -1 -19 13 -3 7 8 8 14 3 14 -5 0 -13 -5 -16 -11z"/>
<path d="M2539 3273 c-13 -16 -12 -17 4 -4 16 13 21 21 13 21 -2 0 -10 -8 -17
-17z"/>
<path d="M2513 3251 c0 -11 5 -18 9 -15 4 3 5 11 1 19 -7 21 -12 19 -10 -4z"/>
<path d="M4555 3248 c4 -13 11 -27 16 -33 5 -5 4 5 -2 23 -12 36 -24 44 -14
10z"/>
<path d="M4736 3262 c-3 -5 1 -9 9 -9 8 0 12 4 9 9 -3 4 -7 8 -9 8 -2 0 -6 -4
-9 -8z"/>
<path d="M2555 3250 c3 -5 8 -10 11 -10 2 0 4 5 4 10 0 6 -5 10 -11 10 -5 0
-7 -4 -4 -10z"/>
<path d="M4457 3224 c-14 -19 -15 -23 -2 -18 8 3 15 11 15 16 0 7 5 6 13 -1 8
-6 17 -8 20 -4 10 10 8 33 -3 33 -5 0 -7 -8 -4 -17 5 -16 4 -17 -8 -2 -12 15
-15 14 -31 -7z"/>
<path d="M4520 3246 c0 -2 7 -7 16 -10 8 -3 12 -2 9 4 -6 10 -25 14 -25 6z"/>
<path d="M4593 3236 c-3 -6 -3 -8 2 -4 4 4 13 3 20 -2 8 -7 12 -5 12 3 0 16
-25 18 -34 3z"/>
<path d="M4516 3215 c-9 -26 -7 -32 5 -12 6 10 9 21 6 23 -2 3 -7 -2 -11 -11z"/>
<path d="M4655 3220 c3 -5 8 -10 11 -10 2 0 4 5 4 10 0 6 -5 10 -11 10 -5 0
-7 -4 -4 -10z"/>
<path d="M2557 3209 c7 -7 15 -10 18 -7 3 3 -2 9 -12 12 -14 6 -15 5 -6 -5z"/>
<path d="M2606 3205 c-9 -26 -7 -32 5 -12 6 10 9 21 6 23 -2 3 -7 -2 -11 -11z"/>
<path d="M4395 3210 c-3 -5 -1 -10 4 -10 6 0 11 5 11 10 0 6 -2 10 -4 10 -3 0
-8 -4 -11 -10z"/>
<path d="M4420 3191 c0 -7 -5 -9 -12 -5 -7 5 -8 3 -3 -5 5 -9 10 -10 18 -2 6
6 8 14 4 18 -4 3 -7 1 -7 -6z"/>
<path d="M4461 3197 c2 -1 12 -9 22 -16 15 -12 17 -12 11 3 -3 9 -13 16 -22
16 -8 0 -13 -1 -11 -3z"/>
<path d="M2637 3173 c3 -7 6 -13 8 -13 2 0 5 6 8 13 3 8 -1 14 -8 14 -7 0 -11
-6 -8 -14z"/>
<path d="M2693 3175 c0 -8 4 -12 9 -9 5 3 6 10 3 15 -9 13 -12 11 -12 -6z"/>
<path d="M4360 3180 c-8 -5 -10 -10 -5 -10 6 0 17 5 25 10 8 5 11 10 5 10 -5
0 -17 -5 -25 -10z"/>
<path d="M4433 3172 c-9 -15 -7 -21 11 -32 19 -12 20 -11 8 2 -7 9 -10 23 -6
32 8 21 2 20 -13 -2z"/>
<path d="M4560 3180 c-9 -6 -10 -10 -3 -10 6 0 15 5 18 10 8 12 4 12 -15 0z"/>
<path d="M4595 3179 c-3 -4 2 -6 10 -5 21 3 28 13 10 13 -9 0 -18 -4 -20 -8z"/>
<path d="M4300 3141 c-16 -16 -32 -26 -35 -23 -3 4 -3 -2 1 -12 7 -18 7 -18
17 0 14 26 34 44 40 38 2 -3 7 2 10 11 9 23 -1 18 -33 -14z"/>
<path d="M4376 3153 c-6 -15 -8 -15 -17 -3 -7 10 -9 11 -7 2 2 -8 7 -13 12
-12 5 1 13 -5 18 -14 5 -9 14 -16 19 -16 6 0 3 7 -6 16 -12 12 -13 19 -4 30 7
9 7 14 1 14 -5 0 -13 -8 -16 -17z"/>
<path d="M2714 3136 c1 -14 4 -28 7 -31 3 -3 5 6 5 19 -1 14 -4 28 -7 31 -3 3
-5 -6 -5 -19z"/>
<path d="M2650 3139 c0 -5 5 -7 10 -4 6 3 10 8 10 11 0 2 -4 4 -10 4 -5 0 -10
-5 -10 -11z"/>
<path d="M2750 3140 c0 -5 5 -10 11 -10 5 0 7 5 4 10 -3 6 -8 10 -11 10 -2 0
-4 -4 -4 -10z"/>
<path d="M3385 3140 c-3 -6 1 -7 9 -4 18 7 21 14 7 14 -6 0 -13 -4 -16 -10z"/>
<path d="M4480 3140 c-9 -6 -10 -10 -3 -10 6 0 15 5 18 10 8 12 4 12 -15 0z"/>
<path d="M3269 3123 c-13 -16 -12 -17 4 -4 16 13 21 21 13 21 -2 0 -10 -8 -17
-17z"/>
<path d="M3319 3138 c-5 -9 -4 -67 0 -62 6 5 9 64 4 64 -2 0 -4 -1 -4 -2z"/>
<path d="M2786 3122 c-3 -5 1 -9 9 -9 8 0 12 4 9 9 -3 4 -7 8 -9 8 -2 0 -6 -4
-9 -8z"/>
<path d="M4315 3120 c-13 -6 -15 -9 -5 -9 8 0 22 4 30 9 18 12 2 12 -25 0z"/>
<path d="M2690 3101 c0 -5 5 -13 10 -16 6 -3 10 -2 10 4 0 5 -4 13 -10 16 -5
3 -10 2 -10 -4z"/>
<path d="M3155 3099 c-3 -4 2 -6 10 -5 21 3 28 13 10 13 -9 0 -18 -4 -20 -8z"/>
<path d="M4337 3103 c-3 -5 5 -8 18 -8 13 0 21 3 18 8 -2 4 -10 7 -18 7 -8 0
-16 -3 -18 -7z"/>
<path d="M4475 3100 c3 -5 8 -10 11 -10 2 0 4 5 4 10 0 6 -5 10 -11 10 -5 0
-7 -4 -4 -10z"/>
<path d="M4286 3083 c-6 -14 -5 -15 5 -6 7 7 10 15 7 18 -3 3 -9 -2 -12 -12z"/>
<path d="M2800 3075 c-7 -8 -17 -12 -23 -8 -6 4 -7 1 -3 -6 6 -9 12 -9 25 3
10 9 21 13 26 9 4 -5 5 -2 1 5 -9 15 -11 15 -26 -3z"/>
<path d="M3201 3076 c-9 -11 -9 -16 1 -22 7 -4 10 -4 6 1 -4 4 -3 14 3 22 6 7
9 13 6 13 -2 0 -10 -6 -16 -14z"/>
<path d="M3235 3081 c-3 -5 -2 -12 3 -15 5 -3 9 1 9 9 0 17 -3 19 -12 6z"/>
<path d="M4217 3075 c-6 -15 10 -32 20 -21 4 3 1 6 -5 6 -6 0 -9 7 -6 15 4 8
4 15 1 15 -3 0 -7 -7 -10 -15z"/>
<path d="M4240 3080 c0 -5 5 -10 11 -10 5 0 7 -5 3 -12 -4 -7 -3 -8 4 -4 6 4
9 13 5 21 -6 17 -23 20 -23 5z"/>
<path d="M3110 3059 c0 -5 5 -7 10 -4 6 3 10 8 10 11 0 2 -4 4 -10 4 -5 0 -10
-5 -10 -11z"/>
<path d="M4182 3048 c-7 -7 -12 -16 -12 -22 0 -5 7 -1 16 10 14 18 15 18 9 -6
-5 -22 -5 -23 6 -7 14 23 -1 43 -19 25z"/>
<path d="M2755 3040 c-8 -13 9 -20 24 -11 10 6 9 10 -3 14 -8 3 -18 2 -21 -3z"/>
<path d="M2853 3035 c0 -8 4 -12 9 -9 5 3 6 10 3 15 -9 13 -12 11 -12 -6z"/>
<path d="M3056 3042 c-3 -5 1 -9 9 -9 8 0 12 4 9 9 -3 4 -7 8 -9 8 -2 0 -6 -4
-9 -8z"/>
<path d="M3153 3036 c-3 -6 -3 -8 2 -4 4 4 13 3 20 -2 8 -7 12 -5 12 3 0 16
-25 18 -34 3z"/>
<path d="M4295 3040 c-5 -8 42 -7 49 1 3 3 -6 5 -20 5 -14 0 -27 -3 -29 -6z"/>
<path d="M4355 3031 c-3 -5 -2 -12 3 -15 5 -3 9 1 9 9 0 17 -3 19 -12 6z"/>
<path d="M2875 3011 c-3 -5 -2 -12 3 -15 5 -3 9 1 9 9 0 17 -3 19 -12 6z"/>
<path d="M3077 3013 c-10 -9 -9 -23 1 -23 5 0 9 7 9 15 0 17 -1 18 -10 8z"/>
<path d="M2830 2998 c0 -4 4 -8 9 -8 6 0 12 4 15 8 3 5 -1 9 -9 9 -8 0 -15 -4
-15 -9z"/>
<path d="M2970 3001 c0 -6 4 -13 10 -16 6 -3 7 1 4 9 -7 18 -14 21 -14 7z"/>
<path d="M4150 3000 c0 -6 4 -9 9 -6 5 4 12 1 14 -4 3 -6 4 -5 3 2 -3 15 -26
23 -26 8z"/>
<path d="M4310 2999 c0 -5 5 -7 10 -4 6 3 10 8 10 11 0 2 -4 4 -10 4 -5 0 -10
-5 -10 -11z"/>
<path d="M1575 2980 c3 -5 8 -10 11 -10 2 0 4 5 4 10 0 6 -5 10 -11 10 -5 0
-7 -4 -4 -10z"/>
<path d="M2850 2976 c-13 -16 -6 -36 13 -36 8 0 7 3 -2 9 -7 5 -10 14 -6 21 6
9 9 9 16 -1 4 -7 11 -11 14 -8 3 4 -1 11 -8 18 -11 9 -17 8 -27 -3z"/>
<path d="M4039 2964 c-5 -15 -8 -29 -5 -31 2 -2 8 10 14 26 13 38 5 41 -9 5z"/>
<path d="M4133 2983 c4 -6 2 -13 -4 -15 -7 -2 -6 -8 3 -16 12 -9 14 -8 13 8
-1 11 -5 23 -10 27 -4 5 -5 3 -2 -4z"/>
<path d="M4225 2980 c-3 -6 1 -7 9 -4 18 7 21 14 7 14 -6 0 -13 -4 -16 -10z"/>
<path d="M2900 2974 c0 -13 18 -39 24 -34 2 3 -2 14 -10 24 -8 11 -14 16 -14
10z"/>
<path d="M3057 2959 c4 -13 8 -18 11 -10 2 7 -1 18 -6 23 -8 8 -9 4 -5 -13z"/>
<path d="M4070 2971 c0 -5 5 -13 10 -16 6 -3 10 -2 10 4 0 5 -4 13 -10 16 -5
3 -10 2 -10 -4z"/>
<path d="M4005 2957 c-13 -16 -17 -79 -4 -71 5 3 7 15 4 27 -6 21 -6 22 9 3 9
-11 16 -15 16 -9 0 7 -5 15 -10 18 -6 4 -8 15 -5 26 7 22 4 23 -10 6z"/>
<path d="M3035 2950 c6 -10 4 -12 -9 -7 -10 4 -15 3 -11 -3 8 -13 35 -13 35
-1 0 6 -5 13 -12 17 -7 5 -8 3 -3 -6z"/>
<path d="M2876 2935 c-25 -19 -12 -35 25 -30 25 3 30 1 24 -13 -5 -13 -3 -14
5 -5 9 8 9 16 1 30 -8 14 -11 14 -11 3 0 -10 -5 -8 -13 7 -11 19 -14 20 -31 8z
m19 -15 c-3 -5 -11 -10 -16 -10 -6 0 -7 5 -4 10 3 6 11 10 16 10 6 0 7 -4 4
-10z"/>
<path d="M2984 2936 c11 -9 17 -19 13 -23 -4 -3 -16 2 -27 12 -11 10 -23 15
-27 12 -3 -4 -1 -7 6 -7 7 0 9 -5 5 -12 -4 -7 -4 -10 1 -6 4 4 14 3 21 -3 14
-11 34 -4 34 11 0 5 -10 14 -22 20 -22 11 -22 10 -4 -4z"/>
<path d="M4050 2928 c-10 -21 -10 -21 3 -6 8 10 18 14 22 10 5 -4 5 -1 1 6
-10 17 -14 15 -26 -10z"/>
<path d="M4107 2929 c4 -13 8 -18 11 -10 2 7 -1 18 -6 23 -8 8 -9 4 -5 -13z"/>
<path d="M3958 2923 c-9 -10 -13 -24 -10 -32 3 -10 0 -11 -9 -5 -20 12 -40 14
-33 3 3 -5 9 -7 14 -4 5 3 16 -5 24 -17 16 -22 21 -15 17 21 -2 7 2 10 8 6 6
-3 11 -1 11 4 0 6 -5 11 -11 11 -8 0 -8 5 1 15 17 21 6 19 -12 -2z"/>
<path d="M1500 2886 c0 -2 8 -10 18 -17 15 -13 16 -12 3 4 -13 16 -21 21 -21
13z"/>
<path d="M1550 2886 c0 -2 7 -7 16 -10 8 -3 12 -2 9 4 -6 10 -25 14 -25 6z"/>
<path d="M4015 2881 c-3 -5 -2 -12 3 -15 5 -3 9 1 9 9 0 17 -3 19 -12 6z"/>
<path d="M4110 2879 c0 -5 5 -7 10 -4 6 3 10 8 10 11 0 2 -4 4 -10 4 -5 0 -10
-5 -10 -11z"/>
<path d="M3975 2859 c-4 -6 -5 -12 -2 -15 2 -3 7 2 10 11 7 17 1 20 -8 4z"/>
<path d="M3994 2843 c2 -2 10 -5 18 -7 7 -1 18 -5 24 -8 6 -4 11 -2 11 5 0 7
-13 13 -29 14 -16 0 -27 -1 -24 -4z"/>
<path d="M3940 2799 c0 -4 6 -9 13 -12 8 -3 14 0 14 7 0 7 -6 13 -14 13 -7 0
-13 -4 -13 -8z"/>
<path d="M4113 2795 c0 -8 4 -12 9 -9 5 3 6 10 3 15 -9 13 -12 11 -12 -6z"/>
<path d="M3986 2779 c2 -4 13 -7 24 -6 23 2 17 10 -10 12 -10 1 -17 -2 -14 -6z"/>
<path d="M3868 2740 c-12 -22 -14 -31 -5 -36 7 -4 9 -4 5 1 -4 4 2 21 13 36
11 16 17 29 12 29 -4 0 -16 -13 -25 -30z"/>
<path d="M3950 2750 c-6 -11 -8 -20 -6 -20 3 0 10 9 16 20 6 11 8 20 6 20 -3
0 -10 -9 -16 -20z"/>
<path d="M3889 2729 c-6 -11 -8 -23 -5 -27 3 -3 6 0 6 7 0 7 4 9 10 6 6 -3 7
1 4 10 -5 11 -2 14 10 9 9 -3 16 -4 16 -1 0 16 -31 13 -41 -4z"/>
<path d="M1774 2569 c-3 -6 -2 -15 3 -20 5 -5 9 -1 9 11 0 23 -2 24 -12 9z"/>
<path d="M1826 2542 c-3 -5 1 -9 9 -9 8 0 15 4 15 9 0 4 -4 8 -9 8 -6 0 -12
-4 -15 -8z"/>
<path d="M1860 2515 c-11 -13 -10 -14 5 -9 14 6 16 4 10 -6 -5 -8 -4 -11 3 -6
6 4 9 13 5 21 -7 19 -8 19 -23 0z"/>
<path d="M3810 2520 c0 -5 5 -10 10 -10 6 0 10 5 10 10 0 6 -4 10 -10 10 -5 0
-10 -4 -10 -10z"/>
<path d="M3840 2516 c0 -2 7 -7 16 -10 8 -3 12 -2 9 4 -6 10 -25 14 -25 6z"/>
<path d="M3720 2495 c-14 -8 -20 -14 -14 -15 5 0 19 7 30 15 24 18 16 19 -16
0z"/>
<path d="M3747 2486 c-17 -13 -16 -14 6 -12 15 0 23 6 20 14 -6 14 -4 15 -26
-2z"/>
<path d="M3834 2485 c1 -8 8 -21 16 -28 12 -10 12 -9 2 4 -6 9 -9 18 -6 21 3
3 1 9 -4 12 -6 3 -9 -1 -8 -9z"/>
<path d="M1690 2479 c0 -5 5 -7 10 -4 6 3 10 8 10 11 0 2 -4 4 -10 4 -5 0 -10
-5 -10 -11z"/>
<path d="M1766 2479 c3 -5 9 -7 14 -4 5 3 13 -3 19 -12 6 -10 11 -13 11 -6 0
13 -17 26 -38 29 -6 1 -10 -2 -6 -7z"/>
<path d="M1910 2480 c0 -5 5 -10 10 -10 6 0 10 5 10 10 0 6 -4 10 -10 10 -5 0
-10 -4 -10 -10z"/>
<path d="M3656 2463 c-15 -14 -24 -28 -21 -31 2 -3 13 6 24 19 16 20 21 21 35
10 20 -16 21 -5 2 14 -12 12 -18 11 -40 -12z"/>
<path d="M3879 2473 c-13 -16 -12 -17 4 -4 16 13 21 21 13 21 -2 0 -10 -8 -17
-17z"/>
<path d="M3930 2480 c0 -5 5 -10 11 -10 5 0 7 5 4 10 -3 6 -8 10 -11 10 -2 0
-4 -4 -4 -10z"/>
<path d="M1849 2448 c-6 -11 -8 -22 -6 -25 3 -2 8 4 11 14 8 26 46 28 41 2 -2
-10 0 -19 6 -19 5 0 7 10 5 23 -4 28 -43 32 -57 5z"/>
<path d="M1944 2454 c1 -8 6 -17 11 -21 4 -4 5 -2 1 5 -4 6 -2 12 3 12 6 0 11
4 11 8 0 5 -6 9 -14 9 -7 0 -13 -6 -12 -13z"/>
<path d="M1695 2451 c-3 -6 5 -15 17 -21 21 -10 21 -10 6 3 -10 8 -15 17 -11
20 3 4 4 7 0 7 -3 0 -8 -4 -12 -9z"/>
<path d="M1776 2448 c5 -7 2 -9 -8 -6 -8 4 -15 0 -15 -7 0 -10 5 -11 19 -4 16
9 17 29 2 29 -3 0 -2 -5 2 -12z"/>
<path d="M1816 2444 c-7 -17 9 -44 26 -44 5 0 3 7 -6 15 -8 9 -13 22 -10 30 4
8 4 15 1 15 -3 0 -8 -7 -11 -16z"/>
<path d="M1921 2444 c0 -11 3 -14 6 -6 3 7 2 16 -1 19 -3 4 -6 -2 -5 -13z"/>
<path d="M1979 2443 c-13 -17 -13 -17 6 -3 11 8 22 16 24 17 2 2 0 3 -6 3 -6
0 -17 -8 -24 -17z"/>
<path d="M3746 2445 c-9 -26 -7 -32 5 -12 6 10 9 21 6 23 -2 3 -7 -2 -11 -11z"/>
<path d="M1315 2441 c-3 -5 -2 -12 3 -15 5 -3 9 1 9 9 0 17 -3 19 -12 6z"/>
<path d="M1646 2442 c-2 -4 4 -8 14 -8 10 0 16 4 14 8 -3 4 -9 8 -14 8 -5 0
-11 -4 -14 -8z"/>
<path d="M3780 2435 c-11 -13 -10 -14 5 -9 14 6 16 4 10 -6 -5 -8 -4 -11 3 -6
6 4 9 13 5 21 -7 19 -8 19 -23 0z"/>
<path d="M1865 2429 c-4 -6 -5 -12 -2 -15 2 -3 7 2 10 11 7 17 1 20 -8 4z"/>
<path d="M3697 2434 c-4 -4 -4 -11 -1 -15 7 -12 34 -11 34 1 0 5 -7 6 -17 3
-11 -4 -14 -3 -9 5 8 13 3 16 -7 6z"/>
<path d="M1590 2426 c0 -2 7 -7 16 -10 8 -3 12 -2 9 4 -6 10 -25 14 -25 6z"/>
<path d="M1790 2425 c0 -5 5 -17 10 -25 5 -8 10 -10 10 -5 0 6 -5 17 -10 25
-5 8 -10 11 -10 5z"/>
<path d="M1436 2407 c3 -10 9 -15 12 -12 3 3 0 11 -7 18 -10 9 -11 8 -5 -6z"/>
<path d="M1576 2407 c3 -10 9 -15 12 -12 3 3 0 11 -7 18 -10 9 -11 8 -5 -6z"/>
<path d="M1686 2403 c-6 -14 -5 -15 5 -6 7 7 10 15 7 18 -3 3 -9 -2 -12 -12z"/>
<path d="M1716 2398 c3 -4 11 -5 19 -1 21 7 19 12 -4 10 -11 0 -18 -5 -15 -9z"/>
<path d="M1760 2406 c0 -2 7 -9 15 -16 13 -11 14 -10 9 4 -5 14 -24 23 -24 12z"/>
<path d="M3494 2393 c2 -10 -2 -25 -8 -33 -9 -13 -9 -13 6 -2 16 12 18 35 6
48 -4 3 -5 -2 -4 -13z"/>
<path d="M3740 2405 c0 -2 6 -8 13 -14 10 -8 14 -7 14 2 0 8 -6 14 -14 14 -7
0 -13 -1 -13 -2z"/>
<path d="M3956 2402 c-3 -5 1 -9 9 -9 8 0 12 4 9 9 -3 4 -7 8 -9 8 -2 0 -6 -4
-9 -8z"/>
<path d="M1552 2387 c-8 -10 -6 -13 11 -14 12 0 16 1 9 4 -6 3 -10 9 -6 14 8
14 -2 11 -14 -4z"/>
<path d="M1695 2379 c-4 -6 -4 -13 -1 -16 3 -4 6 -1 6 6 0 7 5 9 12 5 7 -4 8
-3 4 4 -9 15 -13 15 -21 1z"/>
<path d="M1735 2380 c-3 -6 1 -7 9 -4 18 7 21 14 7 14 -6 0 -13 -4 -16 -10z"/>
<path d="M3685 2383 c13 -11 19 -47 6 -39 -15 10 -25 -14 -12 -27 9 -9 11 -8
5 6 -4 12 -2 17 7 15 19 -4 18 44 -1 49 -9 3 -11 1 -5 -4z"/>
<path d="M1487 2360 c-8 -11 -17 -17 -22 -12 -5 4 -5 1 0 -7 7 -12 10 -11 20
2 7 9 14 15 17 12 2 -3 5 2 5 10 0 20 -3 19 -20 -5z"/>
<path d="M3730 2370 c-11 -7 -11 -10 -2 -10 7 0 10 -5 6 -11 -4 -8 0 -8 15 0
25 14 28 23 4 14 -11 -4 -14 -3 -9 5 9 14 6 15 -14 2z"/>
<path d="M1275 2360 c-3 -5 -1 -10 4 -10 6 0 11 5 11 10 0 6 -2 10 -4 10 -3 0
-8 -4 -11 -10z"/>
<path d="M1375 2360 c-3 -5 -1 -10 4 -10 6 0 11 5 11 10 0 6 -2 10 -4 10 -3 0
-8 -4 -11 -10z"/>
<path d="M1527 2359 c7 -7 15 -10 18 -7 3 3 -2 9 -12 12 -14 6 -15 5 -6 -5z"/>
<path d="M1590 2360 c0 -6 7 -10 15 -10 8 0 15 2 15 4 0 2 -7 6 -15 10 -8 3
-15 1 -15 -4z"/>
<path d="M1439 2344 c5 -11 16 -26 24 -32 17 -14 50 -5 40 11 -4 6 2 8 15 5
12 -4 20 -2 16 3 -9 15 -32 10 -44 -8 -9 -16 -12 -15 -36 12 -16 18 -22 22
-15 9z"/>
<path d="M1346 2337 c3 -9 10 -17 16 -17 5 0 6 -4 3 -10 -3 -6 1 -7 10 -4 9 4
15 7 13 8 -2 1 -13 10 -26 21 -20 16 -22 16 -16 2z"/>
<path d="M1240 2320 c-8 -5 -10 -10 -5 -10 6 0 17 5 25 10 8 5 11 10 5 10 -5
0 -17 -5 -25 -10z"/>
<path d="M1296 2315 c4 -8 8 -15 10 -15 2 0 4 7 4 15 0 8 -4 15 -10 15 -5 0
-7 -7 -4 -15z"/>
<path d="M3711 2327 c2 -1 13 -9 24 -17 19 -14 19 -14 6 3 -7 9 -18 17 -24 17
-6 0 -8 -1 -6 -3z"/>
<path d="M3806 2322 c-3 -5 1 -9 9 -9 8 0 12 4 9 9 -3 4 -7 8 -9 8 -2 0 -6 -4
-9 -8z"/>
<path d="M1196 2307 c3 -10 9 -15 12 -12 3 3 0 11 -7 18 -10 9 -11 8 -5 -6z"/>
<path d="M3690 2300 c-9 -6 -10 -10 -3 -10 6 0 15 5 18 10 8 12 4 12 -15 0z"/>
<path d="M1174 2292 c3 -5 0 -13 -6 -15 -9 -4 -10 -6 -1 -6 17 -1 25 16 12 25
-7 4 -9 3 -5 -4z"/>
<path d="M905 2280 c-3 -6 1 -7 9 -4 18 7 21 14 7 14 -6 0 -13 -4 -16 -10z"/>
<path d="M1133 2280 c2 -8 -8 -23 -22 -32 -14 -10 -21 -18 -16 -18 6 0 20 8
32 18 17 13 20 21 12 32 -9 13 -10 13 -6 0z"/>
<path d="M3710 2280 c0 -5 5 -10 10 -10 6 0 10 5 10 10 0 6 -4 10 -10 10 -5 0
-10 -4 -10 -10z"/>
<path d="M950 2276 c0 -2 8 -10 18 -17 15 -13 16 -12 3 4 -13 16 -21 21 -21
13z"/>
<path d="M990 2266 c0 -2 7 -7 16 -10 8 -3 12 -2 9 4 -6 10 -25 14 -25 6z"/>
<path d="M1084 2254 c-18 -14 -18 -15 4 -4 12 6 22 13 22 15 0 8 -5 6 -26 -11z"/>
<path d="M3685 2240 c10 -11 20 -20 22 -20 2 0 -2 9 -9 20 -7 11 -17 20 -22
20 -5 0 -1 -9 9 -20z"/>
<path d="M706 2242 c-3 -5 1 -9 9 -9 8 0 12 4 9 9 -3 4 -7 8 -9 8 -2 0 -6 -4
-9 -8z"/>
<path d="M1030 2238 c0 -4 4 -8 9 -8 6 0 12 4 15 8 3 5 -1 9 -9 9 -8 0 -15 -4
-15 -9z"/>
<path d="M3733 2235 c0 -8 4 -12 9 -9 4 3 8 9 8 15 0 5 -4 9 -8 9 -5 0 -9 -7
-9 -15z"/>
<path d="M965 2219 c-4 -6 -14 -8 -22 -5 -8 3 -11 1 -8 -4 9 -15 32 -12 39 5
6 17 0 20 -9 4z"/>
<path d="M995 2220 c3 -5 8 -10 11 -10 2 0 4 5 4 10 0 6 -5 10 -11 10 -5 0 -7
-4 -4 -10z"/>
<path d="M1050 2210 c-7 -13 -7 -20 0 -20 5 0 10 7 10 16 0 15 2 15 25 0 16
-11 25 -12 25 -5 0 8 4 8 13 1 10 -8 13 -6 14 9 2 21 -7 25 -24 8 -8 -8 -17
-8 -32 0 -17 9 -22 8 -31 -9z"/>
<path d="M1016 2204 c-8 -20 -8 -24 2 -24 4 0 8 9 9 20 2 24 -3 26 -11 4z"/>
<path d="M3597 2203 c-12 -11 -8 -23 9 -23 9 0 12 -5 8 -12 -5 -7 -3 -8 6 -3
10 6 10 11 -3 20 -9 7 -14 15 -10 18 3 4 4 7 1 7 -2 0 -8 -3 -11 -7z"/>
<path d="M753 2169 c-2 -23 3 -25 10 -4 4 8 3 16 -1 19 -4 3 -9 -4 -9 -15z"/>
<path d="M786 2178 c3 -5 10 -6 15 -3 13 9 11 12 -6 12 -8 0 -12 -4 -9 -9z"/>
<path d="M870 2180 c0 -5 5 -10 10 -10 6 0 10 5 10 10 0 6 -4 10 -10 10 -5 0
-10 -4 -10 -10z"/>
<path d="M3660 2186 c0 -7 40 -14 44 -7 3 4 -6 8 -20 9 -13 1 -24 0 -24 -2z"/>
<path d="M934 2166 c11 -9 24 -16 30 -16 12 0 7 5 -24 19 -24 11 -24 11 -6 -3z"/>
<path d="M3567 2169 c7 -7 15 -10 18 -7 3 3 -2 9 -12 12 -14 6 -15 5 -6 -5z"/>
<path d="M593 2155 c0 -8 4 -12 9 -9 5 3 6 10 3 15 -9 13 -12 11 -12 -6z"/>
<path d="M659 2153 c-12 -16 -12 -17 2 -6 9 7 19 10 22 6 4 -3 7 -1 7 5 0 17
-16 15 -31 -5z"/>
<path d="M830 2160 c0 -6 7 -10 15 -10 8 0 15 2 15 4 0 2 -7 6 -15 10 -8 3
-15 1 -15 -4z"/>
<path d="M3636 2162 c-3 -5 1 -9 9 -9 8 0 12 4 9 9 -3 4 -7 8 -9 8 -2 0 -6 -4
-9 -8z"/>
<path d="M770 2151 c0 -6 4 -13 10 -16 6 -3 7 1 4 9 -7 18 -14 21 -14 7z"/>
<path d="M875 2149 c-4 -6 -5 -12 -2 -15 2 -3 7 2 10 11 7 17 1 20 -8 4z"/>
<path d="M3159 2158 c-6 -12 -4 -48 2 -48 5 0 8 11 7 25 -2 22 -5 30 -9 23z"/>
<path d="M809 2149 c-5 -31 -7 -51 -3 -41 3 6 9 10 14 7 10 -6 7 21 -3 31 -4
4 -7 5 -8 3z"/>
<path d="M3243 2143 c-7 -3 -13 -9 -13 -15 0 -6 6 -6 15 2 10 8 15 9 15 2 0
-6 -8 -15 -17 -21 -17 -9 -17 -11 2 -28 11 -10 14 -12 8 -4 -10 12 -9 18 4 33
17 19 8 39 -14 31z"/>
<path d="M3287 2130 c3 -11 9 -20 15 -20 5 0 4 9 -2 20 -6 11 -12 20 -14 20
-2 0 -2 -9 1 -20z"/>
<path d="M3575 2141 c-3 -5 0 -13 6 -17 8 -5 9 -3 4 6 -6 10 -3 12 13 8 12 -4
20 -2 16 3 -7 12 -31 12 -39 0z"/>
<path d="M744 2128 c3 -15 26 -23 26 -8 0 6 -4 9 -9 6 -5 -4 -12 -1 -14 4 -3
6 -4 5 -3 -2z"/>
<path d="M515 2113 c1 -10 -5 -27 -14 -38 -16 -20 -16 -20 6 -2 20 17 24 39
11 53 -4 3 -5 -2 -3 -13z"/>
<path d="M593 2114 c0 -11 3 -11 16 -1 12 10 14 9 8 -6 -4 -11 -3 -16 4 -12 5
4 8 12 6 18 -5 16 -34 17 -34 1z"/>
<path d="M714 2119 c-3 -6 -1 -16 5 -22 6 -6 11 -7 11 -1 0 5 5 2 11 -6 9 -13
10 -13 6 0 -2 8 -10 14 -17 12 -8 -2 -10 3 -7 13 7 17 1 20 -9 4z"/>
<path d="M840 2119 c0 -5 5 -7 10 -4 6 3 10 8 10 11 0 2 -4 4 -10 4 -5 0 -10
-5 -10 -11z"/>
<path d="M3115 2110 c0 -8 6 -14 12 -13 7 2 15 -6 18 -17 4 -11 11 -20 16 -20
5 0 2 11 -7 25 -9 14 -20 23 -24 20 -5 -3 -10 0 -13 7 -2 7 -3 6 -2 -2z"/>
<path d="M3380 2120 c0 -5 5 -10 11 -10 5 0 7 5 4 10 -3 6 -8 10 -11 10 -2 0
-4 -4 -4 -10z"/>
<path d="M3417 2116 c-3 -8 -3 -17 0 -20 10 -10 33 -7 33 4 0 5 -7 7 -15 4
-11 -5 -13 -2 -9 10 3 9 4 16 1 16 -3 0 -7 -6 -10 -14z"/>
<path d="M3461 2114 c0 -11 3 -14 6 -6 3 7 2 16 -1 19 -3 4 -6 -2 -5 -13z"/>
<path d="M475 2100 c3 -5 8 -10 11 -10 2 0 4 5 4 10 0 6 -5 10 -11 10 -5 0 -7
-4 -4 -10z"/>
<path d="M2775 2100 c3 -5 11 -10 16 -10 6 0 7 5 4 10 -3 6 -11 10 -16 10 -6
0 -7 -4 -4 -10z"/>
<path d="M3175 2099 c-4 -6 -5 -12 -2 -15 2 -3 7 2 10 11 7 17 1 20 -8 4z"/>
<path d="M3266 2102 c-3 -5 1 -9 9 -9 8 0 12 4 9 9 -3 4 -7 8 -9 8 -2 0 -6 -4
-9 -8z"/>
<path d="M3356 2095 c-9 -26 -7 -32 5 -12 6 10 9 21 6 23 -2 3 -7 -2 -11 -11z"/>
<path d="M3610 2099 c0 -5 5 -7 10 -4 6 3 10 8 10 11 0 2 -4 4 -10 4 -5 0 -10
-5 -10 -11z"/>
<path d="M3646 2098 c3 -5 10 -6 15 -3 13 9 11 12 -6 12 -8 0 -12 -4 -9 -9z"/>
<path d="M2668 2093 c7 -3 16 -2 19 1 4 3 -2 6 -13 5 -11 0 -14 -3 -6 -6z"/>
<path d="M2701 2084 c0 -11 3 -14 6 -6 3 7 2 16 -1 19 -3 4 -6 -2 -5 -13z"/>
<path d="M3024 2089 c1 -7 10 -13 19 -15 9 -1 15 2 11 7 -3 5 -9 7 -14 4 -4
-3 -11 0 -13 5 -3 6 -4 5 -3 -1z"/>
<path d="M395 2080 c-3 -5 -1 -10 4 -10 6 0 11 5 11 10 0 6 -2 10 -4 10 -3 0
-8 -4 -11 -10z"/>
<path d="M2452 2073 c3 -17 38 -28 38 -11 0 6 -7 7 -16 4 -12 -4 -15 -2 -10 9
3 8 1 15 -5 15 -6 0 -9 -7 -7 -17z"/>
<path d="M2496 2075 c4 -8 8 -15 10 -15 2 0 4 7 4 15 0 8 -4 15 -10 15 -5 0
-7 -7 -4 -15z"/>
<path d="M2620 2086 c0 -2 7 -6 15 -10 8 -3 15 -1 15 4 0 6 -7 10 -15 10 -8 0
-15 -2 -15 -4z"/>
<path d="M2743 2074 c-17 -14 -17 -15 2 -6 11 5 26 7 33 5 17 -6 15 4 -2 10
-8 3 -22 -1 -33 -9z"/>
<path d="M2828 2073 c-4 -13 0 -19 13 -19 14 0 16 3 6 16 -6 8 -12 16 -13 18
-1 1 -4 -5 -6 -15z"/>
<path d="M2950 2067 c-10 -19 -9 -20 2 -6 7 9 19 14 26 12 17 -6 15 4 -3 11
-9 3 -19 -3 -25 -17z"/>
<path d="M3071 2070 c-13 -11 -19 -20 -13 -20 5 0 15 7 22 15 7 8 16 12 21 9
5 -3 9 0 9 5 0 16 -12 13 -39 -9z"/>
<path d="M3196 2078 c3 -5 10 -6 15 -3 13 9 11 12 -6 12 -8 0 -12 -4 -9 -9z"/>
<path d="M3376 2074 c-3 -7 2 -10 15 -7 22 6 26 20 4 20 -8 0 -16 -6 -19 -13z"/>
<path d="M3466 2078 c3 -5 10 -6 15 -3 13 9 11 12 -6 12 -8 0 -12 -4 -9 -9z"/>
<path d="M554 2072 c3 -5 0 -13 -6 -15 -9 -4 -10 -6 -1 -6 17 -1 25 16 12 25
-7 4 -9 3 -5 -4z"/>
<path d="M593 2072 c-9 -5 -6 -12 10 -21 20 -13 21 -13 9 1 -10 13 -10 17 0
21 7 3 9 6 3 6 -5 0 -15 -3 -22 -7z"/>
<path d="M3573 2065 c0 -8 4 -12 9 -9 5 3 6 10 3 15 -9 13 -12 11 -12 -6z"/>
<path d="M630 2060 c0 -5 5 -10 10 -10 6 0 10 5 10 10 0 6 -4 10 -10 10 -5 0
-10 -4 -10 -10z"/>
<path d="M1850 2063 c0 -6 -10 -10 -23 -9 -14 2 -24 -2 -24 -10 0 -8 6 -10 16
-5 23 11 40 8 51 -9 5 -8 10 -10 10 -5 -1 6 -7 19 -15 29 -8 11 -15 15 -15 9z"/>
<path d="M2333 2063 c4 -6 1 -14 -5 -16 -10 -4 -10 -6 0 -6 7 -1 10 -6 6 -13
-4 -6 -3 -8 4 -5 12 8 10 32 -3 44 -4 4 -5 3 -2 -4z"/>
<path d="M2668 2063 c7 -3 16 -2 19 1 4 3 -2 6 -13 5 -11 0 -14 -3 -6 -6z"/>
<path d="M3315 2060 c-3 -5 -1 -10 4 -10 6 0 11 5 11 10 0 6 -2 10 -4 10 -3 0
-8 -4 -11 -10z"/>
<path d="M2141 2044 c0 -11 3 -14 6 -6 3 7 2 16 -1 19 -3 4 -6 -2 -5 -13z"/>
<path d="M2201 2044 c0 -11 3 -14 6 -6 3 7 2 16 -1 19 -3 4 -6 -2 -5 -13z"/>
<path d="M2915 2050 c-4 -6 -12 -7 -18 -4 -7 4 -8 3 -4 -1 13 -15 34 -14 34 1
0 17 -4 18 -12 4z"/>
<path d="M515 2040 c3 -5 8 -10 11 -10 2 0 4 5 4 10 0 6 -5 10 -11 10 -5 0 -7
-4 -4 -10z"/>
<path d="M570 2042 c0 -5 7 -9 15 -9 8 0 12 4 9 9 -3 4 -9 8 -15 8 -5 0 -9 -4
-9 -8z"/>
<path d="M1715 2041 c-3 -5 0 -13 6 -16 5 -4 8 -14 4 -24 -5 -12 -4 -13 6 -4
9 9 9 16 1 26 -7 8 -9 17 -5 20 3 4 4 7 0 7 -3 0 -8 -4 -12 -9z"/>
<path d="M1740 2040 c0 -5 5 -10 11 -10 5 0 7 5 4 10 -3 6 -8 10 -11 10 -2 0
-4 -4 -4 -10z"/>
<path d="M2091 2047 c2 -1 13 -9 24 -17 19 -14 19 -14 6 3 -7 9 -18 17 -24 17
-6 0 -8 -1 -6 -3z"/>
<path d="M2160 2041 c0 -5 7 -12 16 -15 14 -5 15 -4 4 9 -14 17 -20 19 -20 6z"/>
<path d="M2366 2042 c-3 -5 1 -9 9 -9 8 0 12 4 9 9 -3 4 -7 8 -9 8 -2 0 -6 -4
-9 -8z"/>
<path d="M2496 2042 c-3 -5 1 -9 9 -9 8 0 12 4 9 9 -3 4 -7 8 -9 8 -2 0 -6 -4
-9 -8z"/>
<path d="M3386 2038 c3 -5 10 -6 15 -3 13 9 11 12 -6 12 -8 0 -12 -4 -9 -9z"/>
<path d="M1916 2027 c3 -10 9 -15 12 -12 3 3 0 11 -7 18 -10 9 -11 8 -5 -6z"/>
<path d="M1990 2029 c0 -6 -5 -7 -12 -3 -6 4 -8 3 -5 -4 4 -5 16 -8 27 -5 24
6 25 9 5 17 -8 3 -15 1 -15 -5z"/>
<path d="M2226 2025 c-18 -14 -18 -14 1 -12 11 0 20 7 20 14 0 7 -1 13 -1 13
-1 0 -9 -7 -20 -15z"/>
<path d="M2775 2031 c-3 -5 -2 -12 3 -15 5 -3 9 1 9 9 0 17 -3 19 -12 6z"/>
<path d="M535 2020 c-3 -6 1 -7 9 -4 18 7 21 14 7 14 -6 0 -13 -4 -16 -10z"/>
<path d="M1815 2021 c-3 -5 0 -13 6 -17 7 -4 9 -3 5 4 -3 5 0 13 6 15 9 4 10
6 1 6 -6 1 -14 -3 -18 -8z"/>
<path d="M1894 2022 c3 -5 1 -12 -6 -14 -8 -3 -9 -6 -1 -11 6 -4 13 0 17 8 3
8 0 17 -6 21 -6 4 -8 3 -4 -4z"/>
<path d="M2655 2020 c3 -5 8 -10 11 -10 2 0 4 5 4 10 0 6 -5 10 -11 10 -5 0
-7 -4 -4 -10z"/>
<path d="M2690 2019 c0 -5 5 -7 10 -4 6 3 10 8 10 11 0 2 -4 4 -10 4 -5 0 -10
-5 -10 -11z"/>
<path d="M2735 2020 c3 -5 8 -10 11 -10 2 0 4 5 4 10 0 6 -5 10 -11 10 -5 0
-7 -4 -4 -10z"/>
<path d="M1757 2013 c-3 -5 4 -15 16 -23 21 -12 21 -12 7 6 -8 10 -15 20 -16
22 -1 2 -4 -1 -7 -5z"/>
<path d="M2086 2005 c-11 -8 -15 -15 -9 -15 6 0 16 7 23 15 16 19 11 19 -14 0z"/>
<path d="M1510 2001 c0 -6 5 -13 11 -16 6 -4 8 -13 5 -21 -3 -8 -1 -14 4 -14
13 0 13 27 0 35 -6 4 -8 11 -5 16 4 5 1 9 -4 9 -6 0 -11 -4 -11 -9z"/>
<path d="M1630 1994 c0 -9 -5 -12 -12 -8 -7 4 -8 3 -4 -4 10 -16 14 -15 26 8
7 14 7 20 0 20 -5 0 -10 -7 -10 -16z"/>
<path d="M1846 2002 c-3 -5 1 -9 9 -9 8 0 15 4 15 9 0 4 -4 8 -9 8 -6 0 -12
-4 -15 -8z"/>
<path d="M1959 2008 c-5 -18 -6 -38 -1 -34 7 8 12 36 6 36 -2 0 -4 -1 -5 -2z"/>
<path d="M2013 1990 c1 -21 10 -18 13 5 1 8 -2 15 -6 15 -5 0 -8 -9 -7 -20z"/>
<path d="M2129 1997 c6 -8 7 -18 3 -22 -4 -5 -1 -5 6 -1 10 6 10 11 1 22 -6 8
-14 14 -16 14 -3 0 0 -6 6 -13z"/>
<path d="M3197 1993 c-10 -9 -9 -23 1 -23 5 0 9 7 9 15 0 17 -1 18 -10 8z"/>
<path d="M1380 1965 c-15 -18 -35 -20 -24 -3 4 7 3 8 -4 4 -6 -4 -9 -13 -5
-22 5 -13 8 -13 24 2 15 13 19 14 19 3 0 -11 2 -11 10 1 20 30 3 43 -20 15z"/>
<path d="M1590 1971 c0 -5 5 -13 10 -16 6 -3 10 -2 10 4 0 5 -4 13 -10 16 -5
3 -10 2 -10 -4z"/>
<path d="M1315 1960 c-4 -6 -14 -8 -23 -6 -34 11 -41 -8 -15 -39 l26 -30 -17
28 c-10 16 -14 32 -10 35 4 4 9 1 11 -6 4 -10 8 -10 18 -2 10 9 16 7 24 -8 6
-11 7 -23 3 -27 -4 -5 -1 -5 6 -1 9 6 10 12 0 29 -7 12 -11 25 -10 30 3 11 -6
9 -13 -3z"/>
<path d="M1676 1953 c-6 -14 -5 -15 5 -6 7 7 10 15 7 18 -3 3 -9 -2 -12 -12z"/>
<path d="M1580 1946 c0 -2 8 -10 18 -17 15 -13 16 -12 3 4 -13 16 -21 21 -21
13z"/>
<path d="M1755 1941 c-3 -5 -2 -12 3 -15 5 -3 9 1 9 9 0 17 -3 19 -12 6z"/>
<path d="M1221 1924 c0 -11 3 -14 6 -6 3 7 2 16 -1 19 -3 4 -6 -2 -5 -13z"/>
<path d="M1130 1916 c0 -8 4 -17 9 -20 5 -4 7 3 4 14 -6 23 -13 26 -13 6z"/>
<path d="M1160 1920 c-8 -5 -10 -10 -5 -10 6 0 17 5 25 10 8 5 11 10 5 10 -5
0 -17 -5 -25 -10z"/>
<path d="M1390 1923 c0 -6 8 -17 18 -24 16 -13 16 -13 2 6 -8 11 -16 22 -17
24 -2 2 -3 0 -3 -6z"/>
<path d="M1486 1922 c-3 -5 1 -9 9 -9 8 0 15 4 15 9 0 4 -4 8 -9 8 -6 0 -12
-4 -15 -8z"/>
<path d="M1545 1920 c-3 -6 1 -7 9 -4 18 7 21 14 7 14 -6 0 -13 -4 -16 -10z"/>
<path d="M1192 1911 c-11 -7 -11 -9 0 -14 9 -3 15 1 15 9 0 8 -1 14 -1 14 -1
0 -7 -4 -14 -9z"/>
<path d="M1005 1897 c-8 -4 -15 -13 -15 -20 0 -9 3 -8 8 1 5 7 21 15 36 18 20
3 25 1 20 -7 -4 -8 -3 -9 5 -5 30 19 -21 32 -54 13z"/>
<path d="M1095 1903 c3 -3 -1 -11 -8 -17 -7 -6 -10 -10 -8 -9 2 2 9 -2 16 -7
8 -7 11 -4 10 10 -1 11 -4 22 -8 25 -4 3 -5 2 -2 -2z"/>
<path d="M1439 1908 c-6 -21 -5 -38 1 -38 5 0 8 9 7 20 -1 17 -5 26 -8 18z"/>
<path d="M508 1893 c7 -3 16 -2 19 1 4 3 -2 6 -13 5 -11 0 -14 -3 -6 -6z"/>
<path d="M1220 1896 c0 -2 7 -7 16 -10 8 -3 12 -2 9 4 -6 10 -25 14 -25 6z"/>
<path d="M467 1879 c7 -7 15 -10 18 -7 3 3 -2 9 -12 12 -14 6 -15 5 -6 -5z"/>
<path d="M600 1880 c0 -5 5 -10 11 -10 5 0 7 5 4 10 -3 6 -8 10 -11 10 -2 0
-4 -4 -4 -10z"/>
<path d="M920 1876 c0 -8 4 -17 9 -20 5 -4 7 3 4 14 -6 23 -13 26 -13 6z"/>
<path d="M554 1855 c-4 -8 -11 -12 -18 -8 -6 3 -7 2 -3 -3 11 -12 57 -13 57
-1 0 5 -7 6 -16 3 -12 -4 -15 -2 -10 9 3 8 3 15 0 15 -2 0 -7 -7 -10 -15z"/>
<path d="M806 1858 c3 -5 10 -6 15 -3 13 9 11 12 -6 12 -8 0 -12 -4 -9 -9z"/>
<path d="M876 1854 c-8 -20 -8 -24 2 -24 4 0 8 9 9 20 2 24 -3 26 -11 4z"/>
<path d="M705 1843 c-18 -14 -18 -15 -1 -9 10 3 24 2 31 -4 8 -7 12 -5 12 5 0
8 -4 12 -8 9 -4 -2 -9 0 -11 5 -1 5 -12 3 -23 -6z"/>
<path d="M775 1849 c-4 -6 -5 -12 -2 -15 2 -3 7 2 10 11 7 17 1 20 -8 4z"/>
<path d="M470 1839 c0 -5 5 -7 10 -4 6 3 10 8 10 11 0 2 -4 4 -10 4 -5 0 -10
-5 -10 -11z"/>
<path d="M605 1840 c3 -5 8 -10 11 -10 2 0 4 5 4 10 0 6 -5 10 -11 10 -5 0 -7
-4 -4 -10z"/>
<path d="M655 1830 c-3 -6 1 -7 9 -4 18 7 21 14 7 14 -6 0 -13 -4 -16 -10z"/>
<path d="M820 1826 c0 -2 8 -10 18 -17 15 -13 16 -12 3 4 -13 16 -21 21 -21
13z"/>
<path d="M910 1819 c0 -5 5 -7 10 -4 6 3 10 8 10 11 0 2 -4 4 -10 4 -5 0 -10
-5 -10 -11z"/>
<path d="M1015 1820 c3 -5 8 -10 11 -10 2 0 4 5 4 10 0 6 -5 10 -11 10 -5 0
-7 -4 -4 -10z"/>
<path d="M545 1800 c10 -11 20 -20 23 -20 3 0 -3 9 -13 20 -10 11 -20 20 -23
20 -3 0 3 -9 13 -20z"/>
<path d="M875 1809 c-4 -6 -5 -12 -2 -15 2 -3 7 2 10 11 7 17 1 20 -8 4z"/>
<path d="M1140 1806 c0 -2 8 -10 18 -17 15 -13 16 -12 3 4 -13 16 -21 21 -21
13z"/>
<path d="M730 1779 c0 -5 5 -7 10 -4 6 3 10 8 10 11 0 2 -4 4 -10 4 -5 0 -10
-5 -10 -11z"/>
<path d="M815 1780 c3 -5 8 -10 11 -10 2 0 4 5 4 10 0 6 -5 10 -11 10 -5 0 -7
-4 -4 -10z"/>
<path d="M630 1700 c0 -5 5 -10 11 -10 5 0 7 5 4 10 -3 6 -8 10 -11 10 -2 0
-4 -4 -4 -10z"/>
</g>
</svg>
